solid OpenSCAD_Model
  facet normal -0.995183 -0.098032 0
    outer loop
      vertex 5.67538 2.75 3.01
      vertex 5.63851 3.12429 7
      vertex 5.63851 3.12429 3.01
    endloop
  endfacet
  facet normal -0.995186 -0.0980059 -0
    outer loop
      vertex 5.7 2.5 7
      vertex 5.67538 2.75 3.01
      vertex 5.7 2.5 2
    endloop
  endfacet
  facet normal -0.995184 -0.0980216 -9.90903e-07
    outer loop
      vertex 5.67538 2.75 3.01
      vertex 5.7 2.5 7
      vertex 5.63851 3.12429 7
    endloop
  endfacet
  facet normal -0.995186 -0.0980059 0
    outer loop
      vertex 5.67538 2.75 2
      vertex 5.7 2.5 2
      vertex 5.67538 2.75 3.01
    endloop
  endfacet
  facet normal 0.0980053 -0.995186 0
    outer loop
      vertex 1.87571 5.63851 2
      vertex 2 5.65075 7
      vertex 1.87571 5.63851 7
    endloop
  endfacet
  facet normal 0.0980216 -0.995184 -4.08888e-07
    outer loop
      vertex 2.5 5.7 2
      vertex 2 5.65075 7
      vertex 1.87571 5.63851 2
    endloop
  endfacet
  facet normal 0.0980256 -0.995184 0
    outer loop
      vertex 2 5.65075 7
      vertex 2.5 5.7 2
      vertex 2.5 5.7 7
    endloop
  endfacet
  facet normal -0.63439 -0.773013 0
    outer loop
      vertex 4.27782 5.1607 3.01
      vertex 4.76274 4.76274 7
      vertex 4.27782 5.1607 7
    endloop
  endfacet
  facet normal -0.63439 -0.773013 -0
    outer loop
      vertex 4.76274 4.76274 7
      vertex 4.27782 5.1607 3.01
      vertex 4.76274 4.76274 3.01
    endloop
  endfacet
  facet normal 0.773011 -0.634393 0
    outer loop
      vertex 0 4.47364 7
      vertex 0.237258 4.76274 2
      vertex 0.237258 4.76274 7
    endloop
  endfacet
  facet normal 0.773011 -0.634393 0
    outer loop
      vertex 0.237258 4.76274 2
      vertex 0 4.47364 7
      vertex 0 4.47364 2
    endloop
  endfacet
  facet normal 0.471396 -0.881921 0
    outer loop
      vertex 0.722175 5.1607 2
      vertex 1.27541 5.45641 7
      vertex 0.722175 5.1607 7
    endloop
  endfacet
  facet normal 0.471396 -0.881921 0
    outer loop
      vertex 1.27541 5.45641 7
      vertex 0.722175 5.1607 2
      vertex 1.27541 5.45641 2
    endloop
  endfacet
  facet normal -0.88192 -0.4714 0
    outer loop
      vertex 5.45641 3.72459 3.01
      vertex 5.1607 4.27782 7
      vertex 5.1607 4.27782 3.01
    endloop
  endfacet
  facet normal -0.88192 -0.4714 0
    outer loop
      vertex 5.1607 4.27782 7
      vertex 5.45641 3.72459 3.01
      vertex 5.45641 3.72459 7
    endloop
  endfacet
  facet normal -0.95694 -0.290286 0
    outer loop
      vertex 5.63851 3.12429 3.01
      vertex 5.45641 3.72459 7
      vertex 5.45641 3.72459 3.01
    endloop
  endfacet
  facet normal -0.95694 -0.290286 0
    outer loop
      vertex 5.45641 3.72459 7
      vertex 5.63851 3.12429 3.01
      vertex 5.63851 3.12429 7
    endloop
  endfacet
  facet normal -0.773013 -0.63439 0
    outer loop
      vertex 5.1607 4.27782 3.01
      vertex 4.76274 4.76274 7
      vertex 4.76274 4.76274 3.01
    endloop
  endfacet
  facet normal -0.773013 -0.63439 0
    outer loop
      vertex 4.76274 4.76274 7
      vertex 5.1607 4.27782 3.01
      vertex 5.1607 4.27782 7
    endloop
  endfacet
  facet normal -0.290286 -0.95694 0
    outer loop
      vertex 3.12429 5.63851 3.01
      vertex 3.72459 5.45641 7
      vertex 3.12429 5.63851 7
    endloop
  endfacet
  facet normal -0.290286 -0.95694 -0
    outer loop
      vertex 3.72459 5.45641 7
      vertex 3.12429 5.63851 3.01
      vertex 3.72459 5.45641 3.01
    endloop
  endfacet
  facet normal -0.0980216 -0.995184 -9.90903e-07
    outer loop
      vertex 2.5 5.7 7
      vertex 2.75 5.67538 3.01
      vertex 3.12429 5.63851 7
    endloop
  endfacet
  facet normal -0.0980059 -0.995186 0
    outer loop
      vertex 2.5 5.7 2
      vertex 2.75 5.67538 3.01
      vertex 2.5 5.7 7
    endloop
  endfacet
  facet normal -0.0980059 -0.995186 -0
    outer loop
      vertex 2.75 5.67538 3.01
      vertex 2.5 5.7 2
      vertex 2.75 5.67538 2
    endloop
  endfacet
  facet normal -0.098032 -0.995183 -0
    outer loop
      vertex 3.12429 5.63851 7
      vertex 2.75 5.67538 3.01
      vertex 3.12429 5.63851 3.01
    endloop
  endfacet
  facet normal -0.4714 -0.88192 0
    outer loop
      vertex 3.72459 5.45641 3.01
      vertex 4.27782 5.1607 7
      vertex 3.72459 5.45641 7
    endloop
  endfacet
  facet normal -0.4714 -0.88192 -0
    outer loop
      vertex 4.27782 5.1607 7
      vertex 3.72459 5.45641 3.01
      vertex 4.27782 5.1607 3.01
    endloop
  endfacet
  facet normal 0 0 1
    outer loop
      vertex 2.75 5.67538 2
      vertex 2.5 5.7 2
      vertex 2.75 2.75 2
    endloop
  endfacet
  facet normal -0 0 1
    outer loop
      vertex 2.75 2.75 2
      vertex 5.7 2.5 2
      vertex 5.67538 2.75 2
    endloop
  endfacet
  facet normal 0 0 1
    outer loop
      vertex 5.7 2.5 2
      vertex 2.75 2.75 2
      vertex 5.63851 1.87571 2
    endloop
  endfacet
  facet normal 0 0 1
    outer loop
      vertex 5.63851 1.87571 2
      vertex 2.75 2.75 2
      vertex 5.45641 1.27541 2
    endloop
  endfacet
  facet normal 0 0 1
    outer loop
      vertex 5.45641 1.27541 2
      vertex 2.75 2.75 2
      vertex 5.1607 0.722175 2
    endloop
  endfacet
  facet normal 0 0 1
    outer loop
      vertex 5.1607 0.722175 2
      vertex 2.75 2.75 2
      vertex 4.76274 0.237258 2
    endloop
  endfacet
  facet normal 0 0 1
    outer loop
      vertex 4.76274 0.237258 2
      vertex 2.75 2.75 2
      vertex 4.47364 0 2
    endloop
  endfacet
  facet normal -0 0 1
    outer loop
      vertex 1.87571 5.63851 2
      vertex 2.75 2.75 2
      vertex 2.5 5.7 2
    endloop
  endfacet
  facet normal -0 0 1
    outer loop
      vertex 1.27541 5.45641 2
      vertex 2.75 2.75 2
      vertex 1.87571 5.63851 2
    endloop
  endfacet
  facet normal -0 0 1
    outer loop
      vertex 0.722175 5.1607 2
      vertex 2.75 2.75 2
      vertex 1.27541 5.45641 2
    endloop
  endfacet
  facet normal -0 0 1
    outer loop
      vertex 0.237258 4.76274 2
      vertex 2.75 2.75 2
      vertex 0.722175 5.1607 2
    endloop
  endfacet
  facet normal 0 0 1
    outer loop
      vertex 0 0.526358 2
      vertex 2.75 2.75 2
      vertex 0 4.47364 2
    endloop
  endfacet
  facet normal 0 0 1
    outer loop
      vertex 2.75 2.75 2
      vertex 0.237258 4.76274 2
      vertex 0 4.47364 2
    endloop
  endfacet
  facet normal 0 0 1
    outer loop
      vertex 2.75 2.75 2
      vertex 0.526358 0 2
      vertex 4.47364 0 2
    endloop
  endfacet
  facet normal 0 -0 1
    outer loop
      vertex 0.237258 0.237258 2
      vertex 2.75 2.75 2
      vertex 0 0.526358 2
    endloop
  endfacet
  facet normal 0 0 1
    outer loop
      vertex 2.75 2.75 2
      vertex 0.237258 0.237258 2
      vertex 0.526358 0 2
    endloop
  endfacet
  facet normal 0 0 -1
    outer loop
      vertex 2 2 7
      vertex 5.63851 1.87571 7
      vertex 5.45641 1.27541 7
    endloop
  endfacet
  facet normal 0 0 -1
    outer loop
      vertex 2 2 7
      vertex 5.45641 1.27541 7
      vertex 5.1607 0.722175 7
    endloop
  endfacet
  facet normal 0 0 -1
    outer loop
      vertex 2 2 7
      vertex 5.1607 0.722175 7
      vertex 4.76274 0.237258 7
    endloop
  endfacet
  facet normal 0 0 -1
    outer loop
      vertex 2 2 7
      vertex 4.76274 0.237258 7
      vertex 4.47364 0 7
    endloop
  endfacet
  facet normal 0 0 -1
    outer loop
      vertex 5.63851 1.87571 7
      vertex 2 2 7
      vertex 5.65075 2 7
    endloop
  endfacet
  facet normal 0 0 -1
    outer loop
      vertex 2 2 7
      vertex 1.87571 5.63851 7
      vertex 2 5.65075 7
    endloop
  endfacet
  facet normal 0 0 -1
    outer loop
      vertex 2 2 7
      vertex 1.27541 5.45641 7
      vertex 1.87571 5.63851 7
    endloop
  endfacet
  facet normal 0 0 -1
    outer loop
      vertex 2 2 7
      vertex 0.722175 5.1607 7
      vertex 1.27541 5.45641 7
    endloop
  endfacet
  facet normal 0 0 -1
    outer loop
      vertex 0.526358 0 7
      vertex 2 2 7
      vertex 4.47364 0 7
    endloop
  endfacet
  facet normal 0 0 -1
    outer loop
      vertex 0.237258 0.237258 7
      vertex 2 2 7
      vertex 0.526358 0 7
    endloop
  endfacet
  facet normal 0 0 -1
    outer loop
      vertex 2 2 7
      vertex 0.237258 0.237258 7
      vertex 0 0.526358 7
    endloop
  endfacet
  facet normal -0 0 -1
    outer loop
      vertex 2 2 7
      vertex 0 0.526358 7
      vertex 0 4.47364 7
    endloop
  endfacet
  facet normal 0 -0 -1
    outer loop
      vertex 0.237258 4.76274 7
      vertex 2 2 7
      vertex 0 4.47364 7
    endloop
  endfacet
  facet normal 0 0 -1
    outer loop
      vertex 2 2 7
      vertex 0.237258 4.76274 7
      vertex 0.722175 5.1607 7
    endloop
  endfacet
  facet normal 0 0 -1
    outer loop
      vertex 94.16 57.32 7
      vertex 96.16 54.8464 7
      vertex 95.9227 54.5573 7
    endloop
  endfacet
  facet normal 0 0 -1
    outer loop
      vertex 96.16 54.8464 7
      vertex 94.16 57.32 7
      vertex 96.16 58.7936 7
    endloop
  endfacet
  facet normal -0 0 -1
    outer loop
      vertex 96.16 58.7936 7
      vertex 94.16 57.32 7
      vertex 95.9227 59.0827 7
    endloop
  endfacet
  facet normal 0 0 -1
    outer loop
      vertex 94.16 57.32 7
      vertex 95.9227 54.5573 7
      vertex 95.4378 54.1593 7
    endloop
  endfacet
  facet normal 0 0 -1
    outer loop
      vertex 94.16 57.32 7
      vertex 95.4378 54.1593 7
      vertex 94.8846 53.8636 7
    endloop
  endfacet
  facet normal 0 0 -1
    outer loop
      vertex 94.16 57.32 7
      vertex 94.8846 53.8636 7
      vertex 94.2843 53.6815 7
    endloop
  endfacet
  facet normal 0 0 -1
    outer loop
      vertex 94.16 57.32 7
      vertex 94.2843 53.6815 7
      vertex 94.16 53.6692 7
    endloop
  endfacet
  facet normal -0 0 -1
    outer loop
      vertex 95.9227 59.0827 7
      vertex 94.16 57.32 7
      vertex 95.6336 59.32 7
    endloop
  endfacet
  facet normal 0 0 -1
    outer loop
      vertex 94.16 57.32 7
      vertex 91.6864 59.32 7
      vertex 95.6336 59.32 7
    endloop
  endfacet
  facet normal 0 0 -1
    outer loop
      vertex 94.16 57.32 7
      vertex 91.3973 59.0827 7
      vertex 91.6864 59.32 7
    endloop
  endfacet
  facet normal 0 0 -1
    outer loop
      vertex 94.16 57.32 7
      vertex 90.9993 58.5978 7
      vertex 91.3973 59.0827 7
    endloop
  endfacet
  facet normal 0 0 -1
    outer loop
      vertex 94.16 57.32 7
      vertex 90.7036 58.0446 7
      vertex 90.9993 58.5978 7
    endloop
  endfacet
  facet normal 0 0 -1
    outer loop
      vertex 94.16 57.32 7
      vertex 90.5215 57.4443 7
      vertex 90.7036 58.0446 7
    endloop
  endfacet
  facet normal 0 -0 -1
    outer loop
      vertex 90.5215 57.4443 7
      vertex 94.16 57.32 7
      vertex 90.5092 57.32 7
    endloop
  endfacet
  facet normal 0 0 -1
    outer loop
      vertex 2 53.6692 7
      vertex 1.87571 53.6815 7
      vertex 2 57.32 7
    endloop
  endfacet
  facet normal 0 0 -1
    outer loop
      vertex 2 57.32 7
      vertex 5.63851 57.4443 7
      vertex 5.65075 57.32 7
    endloop
  endfacet
  facet normal -0 0 -1
    outer loop
      vertex 5.63851 57.4443 7
      vertex 2 57.32 7
      vertex 5.45641 58.0446 7
    endloop
  endfacet
  facet normal -0 0 -1
    outer loop
      vertex 5.45641 58.0446 7
      vertex 2 57.32 7
      vertex 5.1607 58.5978 7
    endloop
  endfacet
  facet normal -0 0 -1
    outer loop
      vertex 5.1607 58.5978 7
      vertex 2 57.32 7
      vertex 4.76274 59.0827 7
    endloop
  endfacet
  facet normal -0 0 -1
    outer loop
      vertex 4.76274 59.0827 7
      vertex 2 57.32 7
      vertex 4.47364 59.32 7
    endloop
  endfacet
  facet normal 0 0 -1
    outer loop
      vertex 1.27541 53.8636 7
      vertex 2 57.32 7
      vertex 1.87571 53.6815 7
    endloop
  endfacet
  facet normal 0 0 -1
    outer loop
      vertex 0.722175 54.1593 7
      vertex 2 57.32 7
      vertex 1.27541 53.8636 7
    endloop
  endfacet
  facet normal 0 0 -1
    outer loop
      vertex 2 57.32 7
      vertex 0.526358 59.32 7
      vertex 4.47364 59.32 7
    endloop
  endfacet
  facet normal 0 0 -1
    outer loop
      vertex 0.237258 54.5573 7
      vertex 2 57.32 7
      vertex 0.722175 54.1593 7
    endloop
  endfacet
  facet normal 0 0 -1
    outer loop
      vertex 2 57.32 7
      vertex 0.237258 54.5573 7
      vertex 0 54.8464 7
    endloop
  endfacet
  facet normal 0 0 -1
    outer loop
      vertex 0 58.7936 7
      vertex 2 57.32 7
      vertex 0 54.8464 7
    endloop
  endfacet
  facet normal 0 -0 -1
    outer loop
      vertex 0.237258 59.0827 7
      vertex 2 57.32 7
      vertex 0 58.7936 7
    endloop
  endfacet
  facet normal 0 0 -1
    outer loop
      vertex 2 57.32 7
      vertex 0.237258 59.0827 7
      vertex 0.526358 59.32 7
    endloop
  endfacet
  facet normal 0 0 -1
    outer loop
      vertex 94.16 2 7
      vertex 96.16 0.526358 7
      vertex 95.9227 0.237258 7
    endloop
  endfacet
  facet normal 0 0 -1
    outer loop
      vertex 96.16 0.526358 7
      vertex 94.16 2 7
      vertex 96.16 4.47364 7
    endloop
  endfacet
  facet normal 0 0 -1
    outer loop
      vertex 94.16 2 7
      vertex 95.9227 0.237258 7
      vertex 95.6336 0 7
    endloop
  endfacet
  facet normal -0 0 -1
    outer loop
      vertex 96.16 4.47364 7
      vertex 94.16 2 7
      vertex 95.9227 4.76274 7
    endloop
  endfacet
  facet normal -0 0 -1
    outer loop
      vertex 95.9227 4.76274 7
      vertex 94.16 2 7
      vertex 95.4378 5.1607 7
    endloop
  endfacet
  facet normal -0 0 -1
    outer loop
      vertex 95.4378 5.1607 7
      vertex 94.16 2 7
      vertex 94.8846 5.45641 7
    endloop
  endfacet
  facet normal -0 0 -1
    outer loop
      vertex 94.8846 5.45641 7
      vertex 94.16 2 7
      vertex 94.2843 5.63851 7
    endloop
  endfacet
  facet normal 0 0 -1
    outer loop
      vertex 91.6864 0 7
      vertex 94.16 2 7
      vertex 95.6336 0 7
    endloop
  endfacet
  facet normal 0 0 -1
    outer loop
      vertex 91.3973 0.237258 7
      vertex 94.16 2 7
      vertex 91.6864 0 7
    endloop
  endfacet
  facet normal 0 0 -1
    outer loop
      vertex 90.9993 0.722175 7
      vertex 94.16 2 7
      vertex 91.3973 0.237258 7
    endloop
  endfacet
  facet normal 0 0 -1
    outer loop
      vertex 90.7036 1.27541 7
      vertex 94.16 2 7
      vertex 90.9993 0.722175 7
    endloop
  endfacet
  facet normal 0 0 -1
    outer loop
      vertex 90.5215 1.87571 7
      vertex 94.16 2 7
      vertex 90.7036 1.27541 7
    endloop
  endfacet
  facet normal -0 0 -1
    outer loop
      vertex 94.16 2 7
      vertex 90.5215 1.87571 7
      vertex 90.5092 2 7
    endloop
  endfacet
  facet normal -0 0 -1
    outer loop
      vertex 94.2843 5.63851 7
      vertex 94.16 2 7
      vertex 94.16 5.65075 7
    endloop
  endfacet
  facet normal -0 0 1
    outer loop
      vertex 4.76274 54.5573 7
      vertex 40.0936 32.5646 7
      vertex 5.1607 55.0422 7
    endloop
  endfacet
  facet normal 0 0 1
    outer loop
      vertex 39.85 31.34 7
      vertex 5.63851 3.12429 7
      vertex 5.7 2.5 7
    endloop
  endfacet
  facet normal 0 0 1
    outer loop
      vertex 40.0936 32.5646 7
      vertex 4.76274 54.5573 7
      vertex 39.9115 31.9643 7
    endloop
  endfacet
  facet normal 0 0 1
    outer loop
      vertex 39.85 31.34 7
      vertex 5.45641 3.72459 7
      vertex 5.63851 3.12429 7
    endloop
  endfacet
  facet normal -0 0 1
    outer loop
      vertex 4.27782 54.1593 7
      vertex 39.9115 31.9643 7
      vertex 4.76274 54.5573 7
    endloop
  endfacet
  facet normal 0 0 1
    outer loop
      vertex 39.85 31.34 7
      vertex 5.1607 4.27782 7
      vertex 5.45641 3.72459 7
    endloop
  endfacet
  facet normal 0 0 1
    outer loop
      vertex 39.9115 31.9643 7
      vertex 4.27782 54.1593 7
      vertex 39.85 31.34 7
    endloop
  endfacet
  facet normal 0 0 1
    outer loop
      vertex 39.85 31.34 7
      vertex 4.76274 4.76274 7
      vertex 5.1607 4.27782 7
    endloop
  endfacet
  facet normal -0 0 1
    outer loop
      vertex 3.72459 53.8636 7
      vertex 39.85 31.34 7
      vertex 4.27782 54.1593 7
    endloop
  endfacet
  facet normal 0 0 1
    outer loop
      vertex 39.85 31.34 7
      vertex 4.27782 5.1607 7
      vertex 4.76274 4.76274 7
    endloop
  endfacet
  facet normal 0 0 1
    outer loop
      vertex 3.72459 5.45641 7
      vertex 39.85 31.34 7
      vertex 3.72459 53.8636 7
    endloop
  endfacet
  facet normal 0 0 1
    outer loop
      vertex 39.85 31.34 7
      vertex 3.72459 5.45641 7
      vertex 4.27782 5.1607 7
    endloop
  endfacet
  facet normal -0 0 1
    outer loop
      vertex 3.12429 53.6815 7
      vertex 3.72459 5.45641 7
      vertex 3.72459 53.8636 7
    endloop
  endfacet
  facet normal 0 0 1
    outer loop
      vertex 3.12429 53.6815 7
      vertex 3.12429 5.63851 7
      vertex 3.72459 5.45641 7
    endloop
  endfacet
  facet normal -0 0 1
    outer loop
      vertex 2.5 53.62 7
      vertex 3.12429 5.63851 7
      vertex 3.12429 53.6815 7
    endloop
  endfacet
  facet normal 0 0 1
    outer loop
      vertex 2.5 53.62 7
      vertex 2.5 5.7 7
      vertex 3.12429 5.63851 7
    endloop
  endfacet
  facet normal 0 0 1
    outer loop
      vertex 2 53.6692 7
      vertex 2.5 5.7 7
      vertex 2.5 53.62 7
    endloop
  endfacet
  facet normal 0 0 1
    outer loop
      vertex 2.5 5.7 7
      vertex 2 53.6692 7
      vertex 2 5.65075 7
    endloop
  endfacet
  facet normal -0 0 1
    outer loop
      vertex 45.7107 29.5622 7
      vertex 90.9993 4.27782 7
      vertex 46.0064 30.1154 7
    endloop
  endfacet
  facet normal 0 0 1
    outer loop
      vertex 44.8278 34.0007 7
      vertex 90.46 56.82 7
      vertex 90.5092 57.32 7
    endloop
  endfacet
  facet normal 0 0 1
    outer loop
      vertex 90.5215 56.1957 7
      vertex 46.1885 31.9643 7
      vertex 46.25 31.34 7
    endloop
  endfacet
  facet normal 0 0 1
    outer loop
      vertex 90.5215 56.1957 7
      vertex 46.0064 32.5646 7
      vertex 46.1885 31.9643 7
    endloop
  endfacet
  facet normal 0 0 1
    outer loop
      vertex 90.5215 56.1957 7
      vertex 45.7107 33.1178 7
      vertex 46.0064 32.5646 7
    endloop
  endfacet
  facet normal 0 0 1
    outer loop
      vertex 90.5215 56.1957 7
      vertex 45.3127 33.6027 7
      vertex 45.7107 33.1178 7
    endloop
  endfacet
  facet normal 0 0 1
    outer loop
      vertex 90.46 56.82 7
      vertex 44.8278 34.0007 7
      vertex 45.3127 33.6027 7
    endloop
  endfacet
  facet normal 0 0 1
    outer loop
      vertex 90.5092 57.32 7
      vertex 44.2746 34.2964 7
      vertex 44.8278 34.0007 7
    endloop
  endfacet
  facet normal 0 0 1
    outer loop
      vertex 90.5092 57.32 7
      vertex 43.6743 34.4785 7
      vertex 44.2746 34.2964 7
    endloop
  endfacet
  facet normal 0 0 1
    outer loop
      vertex 90.5092 57.32 7
      vertex 43.05 34.54 7
      vertex 43.6743 34.4785 7
    endloop
  endfacet
  facet normal -0 0 1
    outer loop
      vertex 5.65075 57.32 7
      vertex 43.05 34.54 7
      vertex 90.5092 57.32 7
    endloop
  endfacet
  facet normal 0 0 1
    outer loop
      vertex 43.05 34.54 7
      vertex 5.65075 57.32 7
      vertex 42.4257 34.4785 7
    endloop
  endfacet
  facet normal -0 0 1
    outer loop
      vertex 5.1607 55.0422 7
      vertex 40.3893 33.1178 7
      vertex 5.45641 55.5954 7
    endloop
  endfacet
  facet normal 0 0 1
    outer loop
      vertex 40.7873 33.6027 7
      vertex 5.45641 55.5954 7
      vertex 40.3893 33.1178 7
    endloop
  endfacet
  facet normal -0 0 1
    outer loop
      vertex 5.45641 55.5954 7
      vertex 40.7873 33.6027 7
      vertex 5.63851 56.1957 7
    endloop
  endfacet
  facet normal 0 0 1
    outer loop
      vertex 41.2722 34.0007 7
      vertex 5.63851 56.1957 7
      vertex 40.7873 33.6027 7
    endloop
  endfacet
  facet normal -0 0 1
    outer loop
      vertex 5.63851 56.1957 7
      vertex 41.2722 34.0007 7
      vertex 5.7 56.82 7
    endloop
  endfacet
  facet normal 0 0 1
    outer loop
      vertex 41.8254 34.2964 7
      vertex 5.7 56.82 7
      vertex 41.2722 34.0007 7
    endloop
  endfacet
  facet normal 0 0 1
    outer loop
      vertex 42.4257 34.4785 7
      vertex 5.65075 57.32 7
      vertex 41.8254 34.2964 7
    endloop
  endfacet
  facet normal 0 0 1
    outer loop
      vertex 41.8254 34.2964 7
      vertex 5.65075 57.32 7
      vertex 5.7 56.82 7
    endloop
  endfacet
  facet normal -0 0 1
    outer loop
      vertex 93.66 53.62 7
      vertex 94.16 5.65075 7
      vertex 94.16 53.6692 7
    endloop
  endfacet
  facet normal 0 0 1
    outer loop
      vertex 93.66 53.62 7
      vertex 93.66 5.7 7
      vertex 94.16 5.65075 7
    endloop
  endfacet
  facet normal 0 0 1
    outer loop
      vertex 93.0357 53.6815 7
      vertex 93.66 5.7 7
      vertex 93.66 53.62 7
    endloop
  endfacet
  facet normal 0 0 1
    outer loop
      vertex 93.0357 53.6815 7
      vertex 93.0357 5.63851 7
      vertex 93.66 5.7 7
    endloop
  endfacet
  facet normal 0 0 1
    outer loop
      vertex 92.4354 53.8636 7
      vertex 93.0357 5.63851 7
      vertex 93.0357 53.6815 7
    endloop
  endfacet
  facet normal 0 0 1
    outer loop
      vertex 92.4354 53.8636 7
      vertex 92.4354 5.45641 7
      vertex 93.0357 5.63851 7
    endloop
  endfacet
  facet normal 0 0 1
    outer loop
      vertex 91.8822 54.1593 7
      vertex 92.4354 5.45641 7
      vertex 92.4354 53.8636 7
    endloop
  endfacet
  facet normal 0 0 1
    outer loop
      vertex 91.8822 54.1593 7
      vertex 91.8822 5.1607 7
      vertex 92.4354 5.45641 7
    endloop
  endfacet
  facet normal 0 0 1
    outer loop
      vertex 46.25 31.34 7
      vertex 91.8822 54.1593 7
      vertex 91.3973 54.5573 7
    endloop
  endfacet
  facet normal 0 0 1
    outer loop
      vertex 91.8822 54.1593 7
      vertex 46.25 31.34 7
      vertex 91.8822 5.1607 7
    endloop
  endfacet
  facet normal 0 0 1
    outer loop
      vertex 46.25 31.34 7
      vertex 91.3973 54.5573 7
      vertex 90.9993 55.0422 7
    endloop
  endfacet
  facet normal -0 0 1
    outer loop
      vertex 46.1885 30.7157 7
      vertex 91.8822 5.1607 7
      vertex 46.25 31.34 7
    endloop
  endfacet
  facet normal 0 0 1
    outer loop
      vertex 46.25 31.34 7
      vertex 90.9993 55.0422 7
      vertex 90.7036 55.5954 7
    endloop
  endfacet
  facet normal 0 0 1
    outer loop
      vertex 91.8822 5.1607 7
      vertex 46.1885 30.7157 7
      vertex 91.3973 4.76274 7
    endloop
  endfacet
  facet normal 0 0 1
    outer loop
      vertex 46.25 31.34 7
      vertex 90.7036 55.5954 7
      vertex 90.5215 56.1957 7
    endloop
  endfacet
  facet normal -0 0 1
    outer loop
      vertex 46.0064 30.1154 7
      vertex 91.3973 4.76274 7
      vertex 46.1885 30.7157 7
    endloop
  endfacet
  facet normal 0 0 1
    outer loop
      vertex 45.3127 33.6027 7
      vertex 90.5215 56.1957 7
      vertex 90.46 56.82 7
    endloop
  endfacet
  facet normal 0 0 1
    outer loop
      vertex 91.3973 4.76274 7
      vertex 46.0064 30.1154 7
      vertex 90.9993 4.27782 7
    endloop
  endfacet
  facet normal 0 0 1
    outer loop
      vertex 90.9993 4.27782 7
      vertex 45.7107 29.5622 7
      vertex 90.7036 3.72459 7
    endloop
  endfacet
  facet normal -0 0 1
    outer loop
      vertex 45.3127 29.0773 7
      vertex 90.7036 3.72459 7
      vertex 45.7107 29.5622 7
    endloop
  endfacet
  facet normal 0 0 1
    outer loop
      vertex 90.7036 3.72459 7
      vertex 45.3127 29.0773 7
      vertex 90.5215 3.12429 7
    endloop
  endfacet
  facet normal -0 0 1
    outer loop
      vertex 44.8278 28.6793 7
      vertex 90.5215 3.12429 7
      vertex 45.3127 29.0773 7
    endloop
  endfacet
  facet normal 0 0 1
    outer loop
      vertex 90.5215 3.12429 7
      vertex 44.8278 28.6793 7
      vertex 90.46 2.5 7
    endloop
  endfacet
  facet normal -0 0 1
    outer loop
      vertex 44.2746 28.3836 7
      vertex 90.46 2.5 7
      vertex 44.8278 28.6793 7
    endloop
  endfacet
  facet normal 0 0 1
    outer loop
      vertex 90.46 2.5 7
      vertex 44.2746 28.3836 7
      vertex 90.5092 2 7
    endloop
  endfacet
  facet normal -0 0 1
    outer loop
      vertex 43.6743 28.2015 7
      vertex 90.5092 2 7
      vertex 44.2746 28.3836 7
    endloop
  endfacet
  facet normal -0 0 1
    outer loop
      vertex 43.05 28.14 7
      vertex 90.5092 2 7
      vertex 43.6743 28.2015 7
    endloop
  endfacet
  facet normal 0 0 1
    outer loop
      vertex 5.65075 2 7
      vertex 43.05 28.14 7
      vertex 42.4257 28.2015 7
    endloop
  endfacet
  facet normal 0 0 1
    outer loop
      vertex 5.7 2.5 7
      vertex 42.4257 28.2015 7
      vertex 41.8254 28.3836 7
    endloop
  endfacet
  facet normal 0 0 1
    outer loop
      vertex 5.7 2.5 7
      vertex 41.8254 28.3836 7
      vertex 41.2722 28.6793 7
    endloop
  endfacet
  facet normal 0 0 1
    outer loop
      vertex 40.3893 33.1178 7
      vertex 5.1607 55.0422 7
      vertex 40.0936 32.5646 7
    endloop
  endfacet
  facet normal 0 0 1
    outer loop
      vertex 39.85 31.34 7
      vertex 5.7 2.5 7
      vertex 39.9115 30.7157 7
    endloop
  endfacet
  facet normal 0 0 1
    outer loop
      vertex 39.9115 30.7157 7
      vertex 5.7 2.5 7
      vertex 40.0936 30.1154 7
    endloop
  endfacet
  facet normal 0 0 1
    outer loop
      vertex 40.0936 30.1154 7
      vertex 5.7 2.5 7
      vertex 40.3893 29.5622 7
    endloop
  endfacet
  facet normal 0 0 1
    outer loop
      vertex 40.3893 29.5622 7
      vertex 5.7 2.5 7
      vertex 40.7873 29.0773 7
    endloop
  endfacet
  facet normal 0 0 1
    outer loop
      vertex 40.7873 29.0773 7
      vertex 5.7 2.5 7
      vertex 41.2722 28.6793 7
    endloop
  endfacet
  facet normal 0 0 1
    outer loop
      vertex 42.4257 28.2015 7
      vertex 5.7 2.5 7
      vertex 5.65075 2 7
    endloop
  endfacet
  facet normal 0 0 1
    outer loop
      vertex 43.05 28.14 7
      vertex 5.65075 2 7
      vertex 90.5092 2 7
    endloop
  endfacet
  facet normal 0.634392 -0.773011 0
    outer loop
      vertex 0.237258 4.76274 2
      vertex 0.722175 5.1607 7
      vertex 0.237258 4.76274 7
    endloop
  endfacet
  facet normal 0.634392 -0.773011 0
    outer loop
      vertex 0.722175 5.1607 7
      vertex 0.237258 4.76274 2
      vertex 0.722175 5.1607 2
    endloop
  endfacet
  facet normal 0.290286 -0.95694 0
    outer loop
      vertex 1.27541 5.45641 2
      vertex 1.87571 5.63851 7
      vertex 1.27541 5.45641 7
    endloop
  endfacet
  facet normal 0.290286 -0.95694 0
    outer loop
      vertex 1.87571 5.63851 7
      vertex 1.27541 5.45641 2
      vertex 1.87571 5.63851 2
    endloop
  endfacet
  facet normal -0.995184 0.0980256 0
    outer loop
      vertex 5.7 2.5 2
      vertex 5.65075 2 7
      vertex 5.7 2.5 7
    endloop
  endfacet
  facet normal -0.995184 0.0980216 -4.08888e-07
    outer loop
      vertex 5.63851 1.87571 2
      vertex 5.65075 2 7
      vertex 5.7 2.5 2
    endloop
  endfacet
  facet normal -0.995186 0.0980053 0
    outer loop
      vertex 5.65075 2 7
      vertex 5.63851 1.87571 2
      vertex 5.63851 1.87571 7
    endloop
  endfacet
  facet normal -0.881921 0.471396 0
    outer loop
      vertex 5.1607 0.722175 2
      vertex 5.45641 1.27541 7
      vertex 5.45641 1.27541 2
    endloop
  endfacet
  facet normal -0.881921 0.471396 0
    outer loop
      vertex 5.45641 1.27541 7
      vertex 5.1607 0.722175 2
      vertex 5.1607 0.722175 7
    endloop
  endfacet
  facet normal 0.773011 0.634393 0
    outer loop
      vertex 0.237258 0.237258 7
      vertex 0 0.526358 2
      vertex 0 0.526358 7
    endloop
  endfacet
  facet normal 0.773011 0.634393 0
    outer loop
      vertex 0 0.526358 2
      vertex 0.237258 0.237258 7
      vertex 0.237258 0.237258 2
    endloop
  endfacet
  facet normal -0.634393 0.773011 0
    outer loop
      vertex 4.76274 0.237258 2
      vertex 4.47364 0 7
      vertex 4.76274 0.237258 7
    endloop
  endfacet
  facet normal -0.634393 0.773011 0
    outer loop
      vertex 4.47364 0 7
      vertex 4.76274 0.237258 2
      vertex 4.47364 0 2
    endloop
  endfacet
  facet normal -0.95694 0.290286 0
    outer loop
      vertex 5.45641 1.27541 2
      vertex 5.63851 1.87571 7
      vertex 5.63851 1.87571 2
    endloop
  endfacet
  facet normal -0.95694 0.290286 0
    outer loop
      vertex 5.63851 1.87571 7
      vertex 5.45641 1.27541 2
      vertex 5.45641 1.27541 7
    endloop
  endfacet
  facet normal 0.634393 0.773011 -0
    outer loop
      vertex 0.526358 0 2
      vertex 0.237258 0.237258 7
      vertex 0.526358 0 7
    endloop
  endfacet
  facet normal 0.634393 0.773011 0
    outer loop
      vertex 0.237258 0.237258 7
      vertex 0.526358 0 2
      vertex 0.237258 0.237258 2
    endloop
  endfacet
  facet normal -0.773011 0.634392 0
    outer loop
      vertex 4.76274 0.237258 2
      vertex 5.1607 0.722175 7
      vertex 5.1607 0.722175 2
    endloop
  endfacet
  facet normal -0.773011 0.634392 0
    outer loop
      vertex 5.1607 0.722175 7
      vertex 4.76274 0.237258 2
      vertex 4.76274 0.237258 7
    endloop
  endfacet
  facet normal 0.0980294 -0.995184 0
    outer loop
      vertex 93.41 5.67538 3.01
      vertex 93.0357 5.63851 7
      vertex 93.0357 5.63851 3.01
    endloop
  endfacet
  facet normal 0.09802 -0.995184 -8.92525e-07
    outer loop
      vertex 93.0357 5.63851 7
      vertex 93.41 5.67538 3.01
      vertex 93.66 5.7 7
    endloop
  endfacet
  facet normal 0.0980059 -0.995186 0
    outer loop
      vertex 93.66 5.7 2
      vertex 93.41 5.67538 3.01
      vertex 93.41 5.67538 2
    endloop
  endfacet
  facet normal 0.0980059 -0.995186 0
    outer loop
      vertex 93.41 5.67538 3.01
      vertex 93.66 5.7 2
      vertex 93.66 5.7 7
    endloop
  endfacet
  facet normal -0.634406 -0.773 0
    outer loop
      vertex 95.4378 5.1607 2
      vertex 95.9227 4.76274 7
      vertex 95.4378 5.1607 7
    endloop
  endfacet
  facet normal -0.634406 -0.773 -0
    outer loop
      vertex 95.9227 4.76274 7
      vertex 95.4378 5.1607 2
      vertex 95.9227 4.76274 2
    endloop
  endfacet
  facet normal 0.772982 -0.634428 0
    outer loop
      vertex 90.9993 4.27782 7
      vertex 91.3973 4.76274 3.01
      vertex 91.3973 4.76274 7
    endloop
  endfacet
  facet normal 0.772982 -0.634428 0
    outer loop
      vertex 91.3973 4.76274 3.01
      vertex 90.9993 4.27782 7
      vertex 90.9993 4.27782 3.01
    endloop
  endfacet
  facet normal 0.47142 -0.881909 0
    outer loop
      vertex 91.8822 5.1607 3.01
      vertex 92.4354 5.45641 7
      vertex 91.8822 5.1607 7
    endloop
  endfacet
  facet normal 0.47142 -0.881909 0
    outer loop
      vertex 92.4354 5.45641 7
      vertex 91.8822 5.1607 3.01
      vertex 92.4354 5.45641 3.01
    endloop
  endfacet
  facet normal -0.772956 -0.63446 0
    outer loop
      vertex 96.16 4.47364 2
      vertex 95.9227 4.76274 7
      vertex 95.9227 4.76274 2
    endloop
  endfacet
  facet normal -0.772956 -0.63446 0
    outer loop
      vertex 95.9227 4.76274 7
      vertex 96.16 4.47364 2
      vertex 96.16 4.47364 7
    endloop
  endfacet
  facet normal -0.290286 -0.95694 0
    outer loop
      vertex 94.2843 5.63851 2
      vertex 94.8846 5.45641 7
      vertex 94.2843 5.63851 7
    endloop
  endfacet
  facet normal -0.290286 -0.95694 -0
    outer loop
      vertex 94.8846 5.45641 7
      vertex 94.2843 5.63851 2
      vertex 94.8846 5.45641 2
    endloop
  endfacet
  facet normal -0.0980256 -0.995184 0
    outer loop
      vertex 93.66 5.7 2
      vertex 94.16 5.65075 7
      vertex 93.66 5.7 7
    endloop
  endfacet
  facet normal -0.09802 -0.995184 -5.65899e-07
    outer loop
      vertex 94.2843 5.63851 2
      vertex 94.16 5.65075 7
      vertex 93.66 5.7 2
    endloop
  endfacet
  facet normal -0.0979975 -0.995187 0
    outer loop
      vertex 94.16 5.65075 7
      vertex 94.2843 5.63851 2
      vertex 94.2843 5.63851 7
    endloop
  endfacet
  facet normal -0.47142 -0.881909 0
    outer loop
      vertex 94.8846 5.45641 2
      vertex 95.4378 5.1607 7
      vertex 94.8846 5.45641 7
    endloop
  endfacet
  facet normal -0.47142 -0.881909 -0
    outer loop
      vertex 95.4378 5.1607 7
      vertex 94.8846 5.45641 2
      vertex 95.4378 5.1607 2
    endloop
  endfacet
  facet normal 0.95694 -0.290286 0
    outer loop
      vertex 90.5215 3.12429 7
      vertex 90.7036 3.72459 3.01
      vertex 90.7036 3.72459 7
    endloop
  endfacet
  facet normal 0.95694 -0.290286 0
    outer loop
      vertex 90.7036 3.72459 3.01
      vertex 90.5215 3.12429 7
      vertex 90.5215 3.12429 3.01
    endloop
  endfacet
  facet normal 0 0 1
    outer loop
      vertex 93.41 2.75 2
      vertex 96.16 4.47364 2
      vertex 95.9227 4.76274 2
    endloop
  endfacet
  facet normal 0 0 1
    outer loop
      vertex 96.16 4.47364 2
      vertex 93.41 2.75 2
      vertex 96.16 0.526358 2
    endloop
  endfacet
  facet normal 0 0 1
    outer loop
      vertex 96.16 0.526358 2
      vertex 93.41 2.75 2
      vertex 95.9227 0.237258 2
    endloop
  endfacet
  facet normal 0 0 1
    outer loop
      vertex 93.41 2.75 2
      vertex 95.9227 4.76274 2
      vertex 95.4378 5.1607 2
    endloop
  endfacet
  facet normal 0 0 1
    outer loop
      vertex 93.41 2.75 2
      vertex 95.4378 5.1607 2
      vertex 94.8846 5.45641 2
    endloop
  endfacet
  facet normal 0 0 1
    outer loop
      vertex 93.41 2.75 2
      vertex 94.8846 5.45641 2
      vertex 94.2843 5.63851 2
    endloop
  endfacet
  facet normal 0 0 1
    outer loop
      vertex 93.41 2.75 2
      vertex 94.2843 5.63851 2
      vertex 93.66 5.7 2
    endloop
  endfacet
  facet normal 0 0 1
    outer loop
      vertex 93.41 2.75 2
      vertex 93.66 5.7 2
      vertex 93.41 5.67538 2
    endloop
  endfacet
  facet normal 0 0 1
    outer loop
      vertex 95.9227 0.237258 2
      vertex 93.41 2.75 2
      vertex 95.6336 0 2
    endloop
  endfacet
  facet normal 0 0 1
    outer loop
      vertex 93.41 2.75 2
      vertex 91.6864 0 2
      vertex 95.6336 0 2
    endloop
  endfacet
  facet normal 0 0 1
    outer loop
      vertex 93.41 2.75 2
      vertex 91.3973 0.237258 2
      vertex 91.6864 0 2
    endloop
  endfacet
  facet normal 0 0 1
    outer loop
      vertex 93.41 2.75 2
      vertex 90.9993 0.722175 2
      vertex 91.3973 0.237258 2
    endloop
  endfacet
  facet normal 0 0 1
    outer loop
      vertex 93.41 2.75 2
      vertex 90.7036 1.27541 2
      vertex 90.9993 0.722175 2
    endloop
  endfacet
  facet normal 0 0 1
    outer loop
      vertex 93.41 2.75 2
      vertex 90.5215 1.87571 2
      vertex 90.7036 1.27541 2
    endloop
  endfacet
  facet normal 0 0 1
    outer loop
      vertex 90.46 2.5 2
      vertex 93.41 2.75 2
      vertex 90.4846 2.75 2
    endloop
  endfacet
  facet normal 0 0 1
    outer loop
      vertex 93.41 2.75 2
      vertex 90.46 2.5 2
      vertex 90.5215 1.87571 2
    endloop
  endfacet
  facet normal 0.881926 -0.471387 0
    outer loop
      vertex 90.7036 3.72459 7
      vertex 90.9993 4.27782 3.01
      vertex 90.9993 4.27782 7
    endloop
  endfacet
  facet normal 0.881926 -0.471387 0
    outer loop
      vertex 90.9993 4.27782 3.01
      vertex 90.7036 3.72459 7
      vertex 90.7036 3.72459 3.01
    endloop
  endfacet
  facet normal 0.995175 -0.098111 0
    outer loop
      vertex 90.5215 3.12429 7
      vertex 90.4846 2.75 3.01
      vertex 90.5215 3.12429 3.01
    endloop
  endfacet
  facet normal 0.995183 -0.0980374 -6.9781e-06
    outer loop
      vertex 90.46 2.5 7
      vertex 90.4846 2.75 3.01
      vertex 90.5215 3.12429 7
    endloop
  endfacet
  facet normal 0.995194 -0.097927 0
    outer loop
      vertex 90.46 2.5 2
      vertex 90.4846 2.75 3.01
      vertex 90.46 2.5 7
    endloop
  endfacet
  facet normal 0.995194 -0.097927 0
    outer loop
      vertex 90.4846 2.75 3.01
      vertex 90.46 2.5 2
      vertex 90.4846 2.75 2
    endloop
  endfacet
  facet normal 0.634406 -0.773 0
    outer loop
      vertex 91.3973 4.76274 3.01
      vertex 91.8822 5.1607 7
      vertex 91.3973 4.76274 7
    endloop
  endfacet
  facet normal 0.634406 -0.773 0
    outer loop
      vertex 91.8822 5.1607 7
      vertex 91.3973 4.76274 3.01
      vertex 91.8822 5.1607 3.01
    endloop
  endfacet
  facet normal 0.290286 -0.95694 0
    outer loop
      vertex 92.4354 5.45641 3.01
      vertex 93.0357 5.63851 7
      vertex 92.4354 5.45641 7
    endloop
  endfacet
  facet normal 0.290286 -0.95694 0
    outer loop
      vertex 93.0357 5.63851 7
      vertex 92.4354 5.45641 3.01
      vertex 93.0357 5.63851 3.01
    endloop
  endfacet
  facet normal 0.995194 0.097927 0
    outer loop
      vertex 90.5092 2 7
      vertex 90.46 2.5 2
      vertex 90.46 2.5 7
    endloop
  endfacet
  facet normal 0.995139 0.098481 -0
    outer loop
      vertex 90.5215 1.87571 2
      vertex 90.5092 2 7
      vertex 90.5215 1.87571 7
    endloop
  endfacet
  facet normal 0.995183 0.0980374 1.1137e-05
    outer loop
      vertex 90.5092 2 7
      vertex 90.5215 1.87571 2
      vertex 90.46 2.5 2
    endloop
  endfacet
  facet normal 0.77298 0.63443 0
    outer loop
      vertex 91.3973 0.237258 7
      vertex 90.9993 0.722175 2
      vertex 90.9993 0.722175 7
    endloop
  endfacet
  facet normal 0.77298 0.63443 0
    outer loop
      vertex 90.9993 0.722175 2
      vertex 91.3973 0.237258 7
      vertex 91.3973 0.237258 2
    endloop
  endfacet
  facet normal 0.634393 0.773011 -0
    outer loop
      vertex 91.6864 0 2
      vertex 91.3973 0.237258 7
      vertex 91.6864 0 7
    endloop
  endfacet
  facet normal 0.634393 0.773011 0
    outer loop
      vertex 91.3973 0.237258 7
      vertex 91.6864 0 2
      vertex 91.3973 0.237258 2
    endloop
  endfacet
  facet normal 0.95694 0.290286 0
    outer loop
      vertex 90.7036 1.27541 7
      vertex 90.5215 1.87571 2
      vertex 90.5215 1.87571 7
    endloop
  endfacet
  facet normal 0.95694 0.290286 0
    outer loop
      vertex 90.5215 1.87571 2
      vertex 90.7036 1.27541 7
      vertex 90.7036 1.27541 2
    endloop
  endfacet
  facet normal -0.634393 0.773011 0
    outer loop
      vertex 95.9227 0.237258 2
      vertex 95.6336 0 7
      vertex 95.9227 0.237258 7
    endloop
  endfacet
  facet normal -0.634393 0.773011 0
    outer loop
      vertex 95.6336 0 7
      vertex 95.9227 0.237258 2
      vertex 95.6336 0 2
    endloop
  endfacet
  facet normal 0.881928 0.471384 0
    outer loop
      vertex 90.9993 0.722175 7
      vertex 90.7036 1.27541 2
      vertex 90.7036 1.27541 7
    endloop
  endfacet
  facet normal 0.881928 0.471384 0
    outer loop
      vertex 90.7036 1.27541 2
      vertex 90.9993 0.722175 7
      vertex 90.9993 0.722175 2
    endloop
  endfacet
  facet normal -0.772956 0.63446 0
    outer loop
      vertex 95.9227 0.237258 2
      vertex 96.16 0.526358 7
      vertex 96.16 0.526358 2
    endloop
  endfacet
  facet normal -0.772956 0.63446 0
    outer loop
      vertex 96.16 0.526358 7
      vertex 95.9227 0.237258 2
      vertex 95.9227 0.237258 7
    endloop
  endfacet
  facet normal -0.995187 -0.0979975 0
    outer loop
      vertex 5.63851 57.4443 2
      vertex 5.65075 57.32 7
      vertex 5.63851 57.4443 7
    endloop
  endfacet
  facet normal -0.995184 -0.09802 -5.65899e-07
    outer loop
      vertex 5.7 56.82 2
      vertex 5.65075 57.32 7
      vertex 5.63851 57.4443 2
    endloop
  endfacet
  facet normal -0.995184 -0.0980256 0
    outer loop
      vertex 5.65075 57.32 7
      vertex 5.7 56.82 2
      vertex 5.7 56.82 7
    endloop
  endfacet
  facet normal -0.098111 0.995175 0
    outer loop
      vertex 2.75 53.6446 3.01
      vertex 3.12429 53.6815 7
      vertex 3.12429 53.6815 3.01
    endloop
  endfacet
  facet normal -0.0980374 0.995183 -6.9781e-06
    outer loop
      vertex 3.12429 53.6815 7
      vertex 2.75 53.6446 3.01
      vertex 2.5 53.62 7
    endloop
  endfacet
  facet normal -0.097927 0.995194 0
    outer loop
      vertex 2.5 53.62 2
      vertex 2.75 53.6446 3.01
      vertex 2.75 53.6446 2
    endloop
  endfacet
  facet normal -0.097927 0.995194 0
    outer loop
      vertex 2.75 53.6446 3.01
      vertex 2.5 53.62 2
      vertex 2.5 53.62 7
    endloop
  endfacet
  facet normal -0.63446 -0.772956 0
    outer loop
      vertex 4.47364 59.32 2
      vertex 4.76274 59.0827 7
      vertex 4.47364 59.32 7
    endloop
  endfacet
  facet normal -0.63446 -0.772956 -0
    outer loop
      vertex 4.76274 59.0827 7
      vertex 4.47364 59.32 2
      vertex 4.76274 59.0827 2
    endloop
  endfacet
  facet normal 0.773011 -0.634393 0
    outer loop
      vertex 0 58.7936 7
      vertex 0.237258 59.0827 2
      vertex 0.237258 59.0827 7
    endloop
  endfacet
  facet normal 0.773011 -0.634393 0
    outer loop
      vertex 0.237258 59.0827 2
      vertex 0 58.7936 7
      vertex 0 58.7936 2
    endloop
  endfacet
  facet normal -0.881909 -0.47142 0
    outer loop
      vertex 5.45641 58.0446 2
      vertex 5.1607 58.5978 7
      vertex 5.1607 58.5978 2
    endloop
  endfacet
  facet normal -0.881909 -0.47142 0
    outer loop
      vertex 5.1607 58.5978 7
      vertex 5.45641 58.0446 2
      vertex 5.45641 58.0446 7
    endloop
  endfacet
  facet normal -0.95694 -0.290286 0
    outer loop
      vertex 5.63851 57.4443 2
      vertex 5.45641 58.0446 7
      vertex 5.45641 58.0446 2
    endloop
  endfacet
  facet normal -0.95694 -0.290286 0
    outer loop
      vertex 5.45641 58.0446 7
      vertex 5.63851 57.4443 2
      vertex 5.63851 57.4443 7
    endloop
  endfacet
  facet normal -0.773 -0.634406 0
    outer loop
      vertex 5.1607 58.5978 2
      vertex 4.76274 59.0827 7
      vertex 4.76274 59.0827 2
    endloop
  endfacet
  facet normal -0.773 -0.634406 0
    outer loop
      vertex 4.76274 59.0827 7
      vertex 5.1607 58.5978 2
      vertex 5.1607 58.5978 7
    endloop
  endfacet
  facet normal 0 0 1
    outer loop
      vertex 2.75 56.57 2
      vertex 5.7 56.82 2
      vertex 5.63851 57.4443 2
    endloop
  endfacet
  facet normal 0 0 1
    outer loop
      vertex 2.75 56.57 2
      vertex 5.63851 57.4443 2
      vertex 5.45641 58.0446 2
    endloop
  endfacet
  facet normal 0 0 1
    outer loop
      vertex 2.75 56.57 2
      vertex 5.45641 58.0446 2
      vertex 5.1607 58.5978 2
    endloop
  endfacet
  facet normal 0 0 1
    outer loop
      vertex 2.75 56.57 2
      vertex 5.1607 58.5978 2
      vertex 4.76274 59.0827 2
    endloop
  endfacet
  facet normal 0 0 1
    outer loop
      vertex 2.75 56.57 2
      vertex 4.76274 59.0827 2
      vertex 4.47364 59.32 2
    endloop
  endfacet
  facet normal 0 0 1
    outer loop
      vertex 5.7 56.82 2
      vertex 2.75 56.57 2
      vertex 5.67538 56.57 2
    endloop
  endfacet
  facet normal 0 0 1
    outer loop
      vertex 2.75 56.57 2
      vertex 2.5 53.62 2
      vertex 2.75 53.6446 2
    endloop
  endfacet
  facet normal 0 0 1
    outer loop
      vertex 2.75 56.57 2
      vertex 1.87571 53.6815 2
      vertex 2.5 53.62 2
    endloop
  endfacet
  facet normal 0 0 1
    outer loop
      vertex 2.75 56.57 2
      vertex 1.27541 53.8636 2
      vertex 1.87571 53.6815 2
    endloop
  endfacet
  facet normal 0 0 1
    outer loop
      vertex 2.75 56.57 2
      vertex 0.722175 54.1593 2
      vertex 1.27541 53.8636 2
    endloop
  endfacet
  facet normal -0 0 1
    outer loop
      vertex 0.526358 59.32 2
      vertex 2.75 56.57 2
      vertex 4.47364 59.32 2
    endloop
  endfacet
  facet normal -0 0 1
    outer loop
      vertex 0.237258 59.0827 2
      vertex 2.75 56.57 2
      vertex 0.526358 59.32 2
    endloop
  endfacet
  facet normal 0 0 1
    outer loop
      vertex 2.75 56.57 2
      vertex 0.237258 59.0827 2
      vertex 0 58.7936 2
    endloop
  endfacet
  facet normal 0 0 1
    outer loop
      vertex 2.75 56.57 2
      vertex 0 58.7936 2
      vertex 0 54.8464 2
    endloop
  endfacet
  facet normal 0 -0 1
    outer loop
      vertex 0.237258 54.5573 2
      vertex 2.75 56.57 2
      vertex 0 54.8464 2
    endloop
  endfacet
  facet normal 0 0 1
    outer loop
      vertex 2.75 56.57 2
      vertex 0.237258 54.5573 2
      vertex 0.722175 54.1593 2
    endloop
  endfacet
  facet normal 0.63446 -0.772956 0
    outer loop
      vertex 0.237258 59.0827 2
      vertex 0.526358 59.32 7
      vertex 0.237258 59.0827 7
    endloop
  endfacet
  facet normal 0.63446 -0.772956 0
    outer loop
      vertex 0.526358 59.32 7
      vertex 0.237258 59.0827 2
      vertex 0.526358 59.32 2
    endloop
  endfacet
  facet normal -0.995186 0.0980059 0
    outer loop
      vertex 5.67538 56.57 3.01
      vertex 5.7 56.82 2
      vertex 5.67538 56.57 2
    endloop
  endfacet
  facet normal -0.995186 0.0980059 0
    outer loop
      vertex 5.7 56.82 2
      vertex 5.67538 56.57 3.01
      vertex 5.7 56.82 7
    endloop
  endfacet
  facet normal -0.995184 0.0980294 0
    outer loop
      vertex 5.63851 56.1957 7
      vertex 5.67538 56.57 3.01
      vertex 5.63851 56.1957 3.01
    endloop
  endfacet
  facet normal -0.995184 0.09802 -8.92525e-07
    outer loop
      vertex 5.67538 56.57 3.01
      vertex 5.63851 56.1957 7
      vertex 5.7 56.82 7
    endloop
  endfacet
  facet normal -0.881909 0.47142 0
    outer loop
      vertex 5.1607 55.0422 3.01
      vertex 5.45641 55.5954 7
      vertex 5.45641 55.5954 3.01
    endloop
  endfacet
  facet normal -0.881909 0.47142 0
    outer loop
      vertex 5.45641 55.5954 7
      vertex 5.1607 55.0422 3.01
      vertex 5.1607 55.0422 7
    endloop
  endfacet
  facet normal 0.773011 0.634393 0
    outer loop
      vertex 0.237258 54.5573 7
      vertex 0 54.8464 2
      vertex 0 54.8464 7
    endloop
  endfacet
  facet normal 0.773011 0.634393 0
    outer loop
      vertex 0 54.8464 2
      vertex 0.237258 54.5573 7
      vertex 0.237258 54.5573 2
    endloop
  endfacet
  facet normal -0.634428 0.772982 0
    outer loop
      vertex 4.76274 54.5573 3.01
      vertex 4.27782 54.1593 7
      vertex 4.76274 54.5573 7
    endloop
  endfacet
  facet normal -0.634428 0.772982 0
    outer loop
      vertex 4.27782 54.1593 7
      vertex 4.76274 54.5573 3.01
      vertex 4.27782 54.1593 3.01
    endloop
  endfacet
  facet normal -0.95694 0.290286 0
    outer loop
      vertex 5.45641 55.5954 3.01
      vertex 5.63851 56.1957 7
      vertex 5.63851 56.1957 3.01
    endloop
  endfacet
  facet normal -0.95694 0.290286 0
    outer loop
      vertex 5.63851 56.1957 7
      vertex 5.45641 55.5954 3.01
      vertex 5.45641 55.5954 7
    endloop
  endfacet
  facet normal 0.290286 0.95694 -0
    outer loop
      vertex 1.87571 53.6815 2
      vertex 1.27541 53.8636 7
      vertex 1.87571 53.6815 7
    endloop
  endfacet
  facet normal 0.290286 0.95694 0
    outer loop
      vertex 1.27541 53.8636 7
      vertex 1.87571 53.6815 2
      vertex 1.27541 53.8636 2
    endloop
  endfacet
  facet normal 0.63443 0.77298 -0
    outer loop
      vertex 0.722175 54.1593 2
      vertex 0.237258 54.5573 7
      vertex 0.722175 54.1593 7
    endloop
  endfacet
  facet normal 0.63443 0.77298 0
    outer loop
      vertex 0.237258 54.5573 7
      vertex 0.722175 54.1593 2
      vertex 0.237258 54.5573 2
    endloop
  endfacet
  facet normal -0.471387 0.881926 0
    outer loop
      vertex 4.27782 54.1593 3.01
      vertex 3.72459 53.8636 7
      vertex 4.27782 54.1593 7
    endloop
  endfacet
  facet normal -0.471387 0.881926 0
    outer loop
      vertex 3.72459 53.8636 7
      vertex 4.27782 54.1593 3.01
      vertex 3.72459 53.8636 3.01
    endloop
  endfacet
  facet normal -0.290286 0.95694 0
    outer loop
      vertex 3.72459 53.8636 3.01
      vertex 3.12429 53.6815 7
      vertex 3.72459 53.8636 7
    endloop
  endfacet
  facet normal -0.290286 0.95694 0
    outer loop
      vertex 3.12429 53.6815 7
      vertex 3.72459 53.8636 3.01
      vertex 3.12429 53.6815 3.01
    endloop
  endfacet
  facet normal -0.773 0.634406 0
    outer loop
      vertex 4.76274 54.5573 3.01
      vertex 5.1607 55.0422 7
      vertex 5.1607 55.0422 3.01
    endloop
  endfacet
  facet normal -0.773 0.634406 0
    outer loop
      vertex 5.1607 55.0422 7
      vertex 4.76274 54.5573 3.01
      vertex 4.76274 54.5573 7
    endloop
  endfacet
  facet normal 0.471384 0.881928 -0
    outer loop
      vertex 1.27541 53.8636 2
      vertex 0.722175 54.1593 7
      vertex 1.27541 53.8636 7
    endloop
  endfacet
  facet normal 0.471384 0.881928 0
    outer loop
      vertex 0.722175 54.1593 7
      vertex 1.27541 53.8636 2
      vertex 0.722175 54.1593 2
    endloop
  endfacet
  facet normal 0.097927 0.995194 -0
    outer loop
      vertex 2.5 53.62 2
      vertex 2 53.6692 7
      vertex 2.5 53.62 7
    endloop
  endfacet
  facet normal 0.0980374 0.995183 1.1137e-05
    outer loop
      vertex 1.87571 53.6815 2
      vertex 2 53.6692 7
      vertex 2.5 53.62 2
    endloop
  endfacet
  facet normal 0.098481 0.995139 0
    outer loop
      vertex 2 53.6692 7
      vertex 1.87571 53.6815 2
      vertex 1.87571 53.6815 7
    endloop
  endfacet
  facet normal -0.0984732 0.99514 0
    outer loop
      vertex 94.2843 53.6815 2
      vertex 94.16 53.6692 7
      vertex 94.2843 53.6815 7
    endloop
  endfacet
  facet normal -0.0980358 0.995183 1.098e-05
    outer loop
      vertex 93.66 53.62 2
      vertex 94.16 53.6692 7
      vertex 94.2843 53.6815 2
    endloop
  endfacet
  facet normal -0.097927 0.995194 0
    outer loop
      vertex 94.16 53.6692 7
      vertex 93.66 53.62 2
      vertex 93.66 53.62 7
    endloop
  endfacet
  facet normal -0.63446 -0.772956 0
    outer loop
      vertex 95.6336 59.32 2
      vertex 95.9227 59.0827 7
      vertex 95.6336 59.32 7
    endloop
  endfacet
  facet normal -0.63446 -0.772956 -0
    outer loop
      vertex 95.9227 59.0827 7
      vertex 95.6336 59.32 2
      vertex 95.9227 59.0827 2
    endloop
  endfacet
  facet normal 0.772969 -0.634444 0
    outer loop
      vertex 90.9993 58.5978 7
      vertex 91.3973 59.0827 2
      vertex 91.3973 59.0827 7
    endloop
  endfacet
  facet normal 0.772969 -0.634444 0
    outer loop
      vertex 91.3973 59.0827 2
      vertex 90.9993 58.5978 7
      vertex 90.9993 58.5978 2
    endloop
  endfacet
  facet normal -0.772956 -0.63446 0
    outer loop
      vertex 96.16 58.7936 2
      vertex 95.9227 59.0827 7
      vertex 95.9227 59.0827 2
    endloop
  endfacet
  facet normal -0.772956 -0.63446 0
    outer loop
      vertex 95.9227 59.0827 7
      vertex 96.16 58.7936 2
      vertex 96.16 58.7936 7
    endloop
  endfacet
  facet normal 0.95694 -0.290286 0
    outer loop
      vertex 90.5215 57.4443 7
      vertex 90.7036 58.0446 2
      vertex 90.7036 58.0446 7
    endloop
  endfacet
  facet normal 0.95694 -0.290286 0
    outer loop
      vertex 90.7036 58.0446 2
      vertex 90.5215 57.4443 7
      vertex 90.5215 57.4443 2
    endloop
  endfacet
  facet normal 0 0 1
    outer loop
      vertex 93.41 56.57 2
      vertex 96.16 58.7936 2
      vertex 95.9227 59.0827 2
    endloop
  endfacet
  facet normal 0 0 1
    outer loop
      vertex 96.16 58.7936 2
      vertex 93.41 56.57 2
      vertex 96.16 54.8464 2
    endloop
  endfacet
  facet normal 0 0 1
    outer loop
      vertex 93.41 56.57 2
      vertex 95.9227 59.0827 2
      vertex 95.6336 59.32 2
    endloop
  endfacet
  facet normal 0 0 1
    outer loop
      vertex 96.16 54.8464 2
      vertex 93.41 56.57 2
      vertex 95.9227 54.5573 2
    endloop
  endfacet
  facet normal 0 0 1
    outer loop
      vertex 95.9227 54.5573 2
      vertex 93.41 56.57 2
      vertex 95.4378 54.1593 2
    endloop
  endfacet
  facet normal 0 0 1
    outer loop
      vertex 95.4378 54.1593 2
      vertex 93.41 56.57 2
      vertex 94.8846 53.8636 2
    endloop
  endfacet
  facet normal 0 0 1
    outer loop
      vertex 94.8846 53.8636 2
      vertex 93.41 56.57 2
      vertex 94.2843 53.6815 2
    endloop
  endfacet
  facet normal 0 0 1
    outer loop
      vertex 94.2843 53.6815 2
      vertex 93.41 56.57 2
      vertex 93.66 53.62 2
    endloop
  endfacet
  facet normal -0 0 1
    outer loop
      vertex 91.6864 59.32 2
      vertex 93.41 56.57 2
      vertex 95.6336 59.32 2
    endloop
  endfacet
  facet normal -0 0 1
    outer loop
      vertex 91.3973 59.0827 2
      vertex 93.41 56.57 2
      vertex 91.6864 59.32 2
    endloop
  endfacet
  facet normal -0 0 1
    outer loop
      vertex 90.9993 58.5978 2
      vertex 93.41 56.57 2
      vertex 91.3973 59.0827 2
    endloop
  endfacet
  facet normal -0 0 1
    outer loop
      vertex 90.7036 58.0446 2
      vertex 93.41 56.57 2
      vertex 90.9993 58.5978 2
    endloop
  endfacet
  facet normal -0 0 1
    outer loop
      vertex 90.5215 57.4443 2
      vertex 93.41 56.57 2
      vertex 90.7036 58.0446 2
    endloop
  endfacet
  facet normal -0 0 1
    outer loop
      vertex 90.46 56.82 2
      vertex 93.41 56.57 2
      vertex 90.5215 57.4443 2
    endloop
  endfacet
  facet normal 0 0 1
    outer loop
      vertex 93.41 56.57 2
      vertex 90.46 56.82 2
      vertex 90.4846 56.57 2
    endloop
  endfacet
  facet normal 0 0 1
    outer loop
      vertex 93.66 53.62 2
      vertex 93.41 56.57 2
      vertex 93.41 53.6446 2
    endloop
  endfacet
  facet normal 0.881916 -0.471407 0
    outer loop
      vertex 90.7036 58.0446 7
      vertex 90.9993 58.5978 2
      vertex 90.9993 58.5978 7
    endloop
  endfacet
  facet normal 0.881916 -0.471407 0
    outer loop
      vertex 90.9993 58.5978 2
      vertex 90.7036 58.0446 7
      vertex 90.7036 58.0446 2
    endloop
  endfacet
  facet normal 0.99514 -0.0984732 0
    outer loop
      vertex 90.5092 57.32 7
      vertex 90.5215 57.4443 2
      vertex 90.5215 57.4443 7
    endloop
  endfacet
  facet normal 0.995194 -0.097927 0
    outer loop
      vertex 90.46 56.82 2
      vertex 90.5092 57.32 7
      vertex 90.46 56.82 7
    endloop
  endfacet
  facet normal 0.995183 -0.0980358 1.098e-05
    outer loop
      vertex 90.5092 57.32 7
      vertex 90.46 56.82 2
      vertex 90.5215 57.4443 2
    endloop
  endfacet
  facet normal 0.63446 -0.772956 0
    outer loop
      vertex 91.3973 59.0827 2
      vertex 91.6864 59.32 7
      vertex 91.3973 59.0827 7
    endloop
  endfacet
  facet normal 0.63446 -0.772956 0
    outer loop
      vertex 91.6864 59.32 7
      vertex 91.3973 59.0827 2
      vertex 91.6864 59.32 2
    endloop
  endfacet
  facet normal -0.772956 0.63446 0
    outer loop
      vertex 95.9227 54.5573 2
      vertex 96.16 54.8464 7
      vertex 96.16 54.8464 2
    endloop
  endfacet
  facet normal -0.772956 0.63446 0
    outer loop
      vertex 96.16 54.8464 7
      vertex 95.9227 54.5573 2
      vertex 95.9227 54.5573 7
    endloop
  endfacet
  facet normal 0.995194 0.097927 0
    outer loop
      vertex 90.46 56.82 7
      vertex 90.4846 56.57 3.01
      vertex 90.46 56.82 2
    endloop
  endfacet
  facet normal 0.995183 0.0980358 -6.87971e-06
    outer loop
      vertex 90.5215 56.1957 7
      vertex 90.4846 56.57 3.01
      vertex 90.46 56.82 7
    endloop
  endfacet
  facet normal 0.995176 0.0981084 0
    outer loop
      vertex 90.4846 56.57 3.01
      vertex 90.5215 56.1957 7
      vertex 90.5215 56.1957 3.01
    endloop
  endfacet
  facet normal 0.995194 0.097927 0
    outer loop
      vertex 90.46 56.82 2
      vertex 90.4846 56.57 3.01
      vertex 90.4846 56.57 2
    endloop
  endfacet
  facet normal 0.772969 0.634444 0
    outer loop
      vertex 91.3973 54.5573 7
      vertex 90.9993 55.0422 3.01
      vertex 90.9993 55.0422 7
    endloop
  endfacet
  facet normal 0.772969 0.634444 0
    outer loop
      vertex 90.9993 55.0422 3.01
      vertex 91.3973 54.5573 7
      vertex 91.3973 54.5573 3.01
    endloop
  endfacet
  facet normal -0.290286 0.95694 0
    outer loop
      vertex 94.8846 53.8636 2
      vertex 94.2843 53.6815 7
      vertex 94.8846 53.8636 7
    endloop
  endfacet
  facet normal -0.290286 0.95694 0
    outer loop
      vertex 94.2843 53.6815 7
      vertex 94.8846 53.8636 2
      vertex 94.2843 53.6815 2
    endloop
  endfacet
  facet normal -0.634444 0.772969 0
    outer loop
      vertex 95.9227 54.5573 2
      vertex 95.4378 54.1593 7
      vertex 95.9227 54.5573 7
    endloop
  endfacet
  facet normal -0.634444 0.772969 0
    outer loop
      vertex 95.4378 54.1593 7
      vertex 95.9227 54.5573 2
      vertex 95.4378 54.1593 2
    endloop
  endfacet
  facet normal 0.0980358 0.995183 -6.87971e-06
    outer loop
      vertex 93.66 53.62 7
      vertex 93.41 53.6446 3.01
      vertex 93.0357 53.6815 7
    endloop
  endfacet
  facet normal 0.097927 0.995194 -0
    outer loop
      vertex 93.66 53.62 2
      vertex 93.41 53.6446 3.01
      vertex 93.66 53.62 7
    endloop
  endfacet
  facet normal 0.097927 0.995194 0
    outer loop
      vertex 93.41 53.6446 3.01
      vertex 93.66 53.62 2
      vertex 93.41 53.6446 2
    endloop
  endfacet
  facet normal 0.0981084 0.995176 0
    outer loop
      vertex 93.0357 53.6815 7
      vertex 93.41 53.6446 3.01
      vertex 93.0357 53.6815 3.01
    endloop
  endfacet
  facet normal 0.471407 0.881916 -0
    outer loop
      vertex 92.4354 53.8636 3.01
      vertex 91.8822 54.1593 7
      vertex 92.4354 53.8636 7
    endloop
  endfacet
  facet normal 0.471407 0.881916 0
    outer loop
      vertex 91.8822 54.1593 7
      vertex 92.4354 53.8636 3.01
      vertex 91.8822 54.1593 3.01
    endloop
  endfacet
  facet normal 0.634444 0.772969 -0
    outer loop
      vertex 91.8822 54.1593 3.01
      vertex 91.3973 54.5573 7
      vertex 91.8822 54.1593 7
    endloop
  endfacet
  facet normal 0.634444 0.772969 0
    outer loop
      vertex 91.3973 54.5573 7
      vertex 91.8822 54.1593 3.01
      vertex 91.3973 54.5573 3.01
    endloop
  endfacet
  facet normal 0.881916 0.471407 0
    outer loop
      vertex 90.9993 55.0422 7
      vertex 90.7036 55.5954 3.01
      vertex 90.7036 55.5954 7
    endloop
  endfacet
  facet normal 0.881916 0.471407 0
    outer loop
      vertex 90.7036 55.5954 3.01
      vertex 90.9993 55.0422 7
      vertex 90.9993 55.0422 3.01
    endloop
  endfacet
  facet normal 0.95694 0.290286 0
    outer loop
      vertex 90.7036 55.5954 7
      vertex 90.5215 56.1957 3.01
      vertex 90.5215 56.1957 7
    endloop
  endfacet
  facet normal 0.95694 0.290286 0
    outer loop
      vertex 90.5215 56.1957 3.01
      vertex 90.7036 55.5954 7
      vertex 90.7036 55.5954 3.01
    endloop
  endfacet
  facet normal -0.471407 0.881916 0
    outer loop
      vertex 95.4378 54.1593 2
      vertex 94.8846 53.8636 7
      vertex 95.4378 54.1593 7
    endloop
  endfacet
  facet normal -0.471407 0.881916 0
    outer loop
      vertex 94.8846 53.8636 7
      vertex 95.4378 54.1593 2
      vertex 94.8846 53.8636 2
    endloop
  endfacet
  facet normal 0.290286 0.95694 -0
    outer loop
      vertex 93.0357 53.6815 3.01
      vertex 92.4354 53.8636 7
      vertex 93.0357 53.6815 7
    endloop
  endfacet
  facet normal 0.290286 0.95694 0
    outer loop
      vertex 92.4354 53.8636 7
      vertex 93.0357 53.6815 3.01
      vertex 92.4354 53.8636 3.01
    endloop
  endfacet
  facet normal -1 0 0
    outer loop
      vertex 0 59.32 0
      vertex 0 58.7936 2
      vertex 0 59.32 9
    endloop
  endfacet
  facet normal -1 0 0
    outer loop
      vertex 0 59.32 0
      vertex 0 54.8464 2
      vertex 0 58.7936 2
    endloop
  endfacet
  facet normal -1 0 0
    outer loop
      vertex 0 54.8464 2
      vertex 0 4.47364 2
      vertex 0 54.8464 7
    endloop
  endfacet
  facet normal -1 0 0
    outer loop
      vertex 0 59.32 0
      vertex 0 4.47364 2
      vertex 0 54.8464 2
    endloop
  endfacet
  facet normal -1 0 0
    outer loop
      vertex 0 0 0
      vertex 0 4.47364 2
      vertex 0 59.32 0
    endloop
  endfacet
  facet normal -1 -0 0
    outer loop
      vertex 0 0.526358 2
      vertex 0 0 0
      vertex 0 0.526358 7
    endloop
  endfacet
  facet normal -1 -0 0
    outer loop
      vertex 0 4.47364 2
      vertex 0 0 0
      vertex 0 0.526358 2
    endloop
  endfacet
  facet normal -1 0 0
    outer loop
      vertex 0 58.7936 7
      vertex 0 59.32 9
      vertex 0 58.7936 2
    endloop
  endfacet
  facet normal -1 0 0
    outer loop
      vertex 0 54.8464 7
      vertex 0 59.32 9
      vertex 0 58.7936 7
    endloop
  endfacet
  facet normal -1 0 0
    outer loop
      vertex 0 4.47364 7
      vertex 0 54.8464 7
      vertex 0 4.47364 2
    endloop
  endfacet
  facet normal -1 0 0
    outer loop
      vertex 0 54.8464 7
      vertex 0 4.47364 7
      vertex 0 59.32 9
    endloop
  endfacet
  facet normal -1 0 0
    outer loop
      vertex 0 0 9
      vertex 0 4.47364 7
      vertex 0 0.526358 7
    endloop
  endfacet
  facet normal -1 0 0
    outer loop
      vertex 0 4.47364 7
      vertex 0 0 9
      vertex 0 59.32 9
    endloop
  endfacet
  facet normal -1 0 0
    outer loop
      vertex 0 0 9
      vertex 0 0.526358 7
      vertex 0 0 0
    endloop
  endfacet
  facet normal 0 0 1
    outer loop
      vertex 96.16 59.32 9
      vertex 94.16 57.32 9
      vertex 96.16 0 9
    endloop
  endfacet
  facet normal 0 0 1
    outer loop
      vertex 96.16 59.32 9
      vertex 2 57.32 9
      vertex 94.16 57.32 9
    endloop
  endfacet
  facet normal 0 0 1
    outer loop
      vertex 2 57.32 9
      vertex 0 59.32 9
      vertex 2 2 9
    endloop
  endfacet
  facet normal -0 0 1
    outer loop
      vertex 0 59.32 9
      vertex 2 57.32 9
      vertex 96.16 59.32 9
    endloop
  endfacet
  facet normal -0 0 1
    outer loop
      vertex 94.16 2 9
      vertex 96.16 0 9
      vertex 94.16 57.32 9
    endloop
  endfacet
  facet normal -0 0 1
    outer loop
      vertex 2 2 9
      vertex 96.16 0 9
      vertex 94.16 2 9
    endloop
  endfacet
  facet normal 0 0 1
    outer loop
      vertex 2 2 9
      vertex 0 0 9
      vertex 96.16 0 9
    endloop
  endfacet
  facet normal 0 0 1
    outer loop
      vertex 0 0 9
      vertex 2 2 9
      vertex 0 59.32 9
    endloop
  endfacet
  facet normal 1 0 0
    outer loop
      vertex 96.16 59.32 9
      vertex 96.16 58.7936 7
      vertex 96.16 59.32 0
    endloop
  endfacet
  facet normal 1 0 0
    outer loop
      vertex 96.16 59.32 9
      vertex 96.16 54.8464 7
      vertex 96.16 58.7936 7
    endloop
  endfacet
  facet normal 1 0 0
    outer loop
      vertex 96.16 54.8464 7
      vertex 96.16 4.47364 7
      vertex 96.16 54.8464 2
    endloop
  endfacet
  facet normal 1 0 0
    outer loop
      vertex 96.16 59.32 9
      vertex 96.16 4.47364 7
      vertex 96.16 54.8464 7
    endloop
  endfacet
  facet normal 1 -0 0
    outer loop
      vertex 96.16 0 9
      vertex 96.16 4.47364 7
      vertex 96.16 59.32 9
    endloop
  endfacet
  facet normal 1 0 0
    outer loop
      vertex 96.16 0.526358 7
      vertex 96.16 0 9
      vertex 96.16 0.526358 2
    endloop
  endfacet
  facet normal 1 0 0
    outer loop
      vertex 96.16 4.47364 7
      vertex 96.16 0 9
      vertex 96.16 0.526358 7
    endloop
  endfacet
  facet normal 1 -0 0
    outer loop
      vertex 96.16 58.7936 2
      vertex 96.16 59.32 0
      vertex 96.16 58.7936 7
    endloop
  endfacet
  facet normal 1 -0 0
    outer loop
      vertex 96.16 54.8464 2
      vertex 96.16 59.32 0
      vertex 96.16 58.7936 2
    endloop
  endfacet
  facet normal 1 0 0
    outer loop
      vertex 96.16 4.47364 2
      vertex 96.16 54.8464 2
      vertex 96.16 4.47364 7
    endloop
  endfacet
  facet normal 1 0 0
    outer loop
      vertex 96.16 54.8464 2
      vertex 96.16 4.47364 2
      vertex 96.16 59.32 0
    endloop
  endfacet
  facet normal 1 0 0
    outer loop
      vertex 96.16 0 0
      vertex 96.16 4.47364 2
      vertex 96.16 0.526358 2
    endloop
  endfacet
  facet normal 1 0 0
    outer loop
      vertex 96.16 4.47364 2
      vertex 96.16 0 0
      vertex 96.16 59.32 0
    endloop
  endfacet
  facet normal 1 0 0
    outer loop
      vertex 96.16 0 0
      vertex 96.16 0.526358 2
      vertex 96.16 0 9
    endloop
  endfacet
  facet normal 0 0 -1
    outer loop
      vertex 96.16 0 0
      vertex 93.41 2.75 0
      vertex 96.16 59.32 0
    endloop
  endfacet
  facet normal 0 0 -1
    outer loop
      vertex 96.16 0 0
      vertex 2.75 2.75 0
      vertex 93.41 2.75 0
    endloop
  endfacet
  facet normal -0 0 -1
    outer loop
      vertex 2.75 2.75 0
      vertex 0 0 0
      vertex 2.75 56.57 0
    endloop
  endfacet
  facet normal 0 0 -1
    outer loop
      vertex 0 0 0
      vertex 2.75 2.75 0
      vertex 96.16 0 0
    endloop
  endfacet
  facet normal 0 0 -1
    outer loop
      vertex 93.41 56.57 0
      vertex 96.16 59.32 0
      vertex 93.41 2.75 0
    endloop
  endfacet
  facet normal 0 0 -1
    outer loop
      vertex 2.75 56.57 0
      vertex 96.16 59.32 0
      vertex 93.41 56.57 0
    endloop
  endfacet
  facet normal 0 0 -1
    outer loop
      vertex 2.75 56.57 0
      vertex 0 59.32 0
      vertex 96.16 59.32 0
    endloop
  endfacet
  facet normal 0 0 -1
    outer loop
      vertex 0 59.32 0
      vertex 2.75 56.57 0
      vertex 0 0 0
    endloop
  endfacet
  facet normal 0 -1 0
    outer loop
      vertex 4.47364 0 2
      vertex 91.6864 0 7
      vertex 4.47364 0 7
    endloop
  endfacet
  facet normal 0 -1 -0
    outer loop
      vertex 91.6864 0 7
      vertex 4.47364 0 2
      vertex 91.6864 0 2
    endloop
  endfacet
  facet normal 0 -1 0
    outer loop
      vertex 4.47364 0 7
      vertex 0 0 9
      vertex 0.526358 0 7
    endloop
  endfacet
  facet normal 0 -1 0
    outer loop
      vertex 0 0 9
      vertex 0.526358 0 2
      vertex 0.526358 0 7
    endloop
  endfacet
  facet normal 0 -1 0
    outer loop
      vertex 0 0 0
      vertex 4.47364 0 2
      vertex 0.526358 0 2
    endloop
  endfacet
  facet normal 0 -1 -0
    outer loop
      vertex 4.47364 0 2
      vertex 0 0 0
      vertex 91.6864 0 2
    endloop
  endfacet
  facet normal 0 -1 0
    outer loop
      vertex 96.16 0 0
      vertex 91.6864 0 2
      vertex 0 0 0
    endloop
  endfacet
  facet normal 0 -1 0
    outer loop
      vertex 0 0 0
      vertex 0.526358 0 2
      vertex 0 0 9
    endloop
  endfacet
  facet normal 0 -1 0
    outer loop
      vertex 0 0 9
      vertex 4.47364 0 7
      vertex 96.16 0 9
    endloop
  endfacet
  facet normal 0 -1 0
    outer loop
      vertex 91.6864 0 7
      vertex 96.16 0 9
      vertex 4.47364 0 7
    endloop
  endfacet
  facet normal 0 -1 0
    outer loop
      vertex 95.6336 0 7
      vertex 96.16 0 9
      vertex 91.6864 0 7
    endloop
  endfacet
  facet normal 0 -1 0
    outer loop
      vertex 95.6336 0 2
      vertex 96.16 0 9
      vertex 95.6336 0 7
    endloop
  endfacet
  facet normal 0 -1 0
    outer loop
      vertex 95.6336 0 2
      vertex 96.16 0 0
      vertex 96.16 0 9
    endloop
  endfacet
  facet normal 0 -1 0
    outer loop
      vertex 91.6864 0 2
      vertex 96.16 0 0
      vertex 95.6336 0 2
    endloop
  endfacet
  facet normal 0 1 -0
    outer loop
      vertex 91.6864 59.32 2
      vertex 4.47364 59.32 7
      vertex 91.6864 59.32 7
    endloop
  endfacet
  facet normal 0 1 0
    outer loop
      vertex 4.47364 59.32 7
      vertex 91.6864 59.32 2
      vertex 4.47364 59.32 2
    endloop
  endfacet
  facet normal 0 1 0
    outer loop
      vertex 91.6864 59.32 7
      vertex 96.16 59.32 9
      vertex 95.6336 59.32 7
    endloop
  endfacet
  facet normal 0 1 0
    outer loop
      vertex 96.16 59.32 9
      vertex 95.6336 59.32 2
      vertex 95.6336 59.32 7
    endloop
  endfacet
  facet normal 0 1 0
    outer loop
      vertex 96.16 59.32 0
      vertex 91.6864 59.32 2
      vertex 95.6336 59.32 2
    endloop
  endfacet
  facet normal 0 1 0
    outer loop
      vertex 91.6864 59.32 2
      vertex 96.16 59.32 0
      vertex 4.47364 59.32 2
    endloop
  endfacet
  facet normal 0 1 0
    outer loop
      vertex 0 59.32 0
      vertex 4.47364 59.32 2
      vertex 96.16 59.32 0
    endloop
  endfacet
  facet normal 0 1 -0
    outer loop
      vertex 96.16 59.32 0
      vertex 95.6336 59.32 2
      vertex 96.16 59.32 9
    endloop
  endfacet
  facet normal 0 1 0
    outer loop
      vertex 96.16 59.32 9
      vertex 91.6864 59.32 7
      vertex 0 59.32 9
    endloop
  endfacet
  facet normal 0 1 -0
    outer loop
      vertex 4.47364 59.32 7
      vertex 0 59.32 9
      vertex 91.6864 59.32 7
    endloop
  endfacet
  facet normal 0 1 -0
    outer loop
      vertex 0.526358 59.32 7
      vertex 0 59.32 9
      vertex 4.47364 59.32 7
    endloop
  endfacet
  facet normal 0 1 -0
    outer loop
      vertex 0.526358 59.32 2
      vertex 0 59.32 9
      vertex 0.526358 59.32 7
    endloop
  endfacet
  facet normal 0 1 0
    outer loop
      vertex 0.526358 59.32 2
      vertex 0 59.32 0
      vertex 0 59.32 9
    endloop
  endfacet
  facet normal 0 1 0
    outer loop
      vertex 4.47364 59.32 2
      vertex 0 59.32 0
      vertex 0.526358 59.32 2
    endloop
  endfacet
  facet normal 1 0 0
    outer loop
      vertex 2 57.32 9
      vertex 2 53.6692 7
      vertex 2 57.32 7
    endloop
  endfacet
  facet normal 1 0 0
    outer loop
      vertex 2 57.32 9
      vertex 2 5.65075 7
      vertex 2 53.6692 7
    endloop
  endfacet
  facet normal 1 -0 0
    outer loop
      vertex 2 2 9
      vertex 2 5.65075 7
      vertex 2 57.32 9
    endloop
  endfacet
  facet normal 1 0 0
    outer loop
      vertex 2 5.65075 7
      vertex 2 2 9
      vertex 2 2 7
    endloop
  endfacet
  facet normal -1 0 0
    outer loop
      vertex 94.16 53.6692 7
      vertex 94.16 57.32 9
      vertex 94.16 57.32 7
    endloop
  endfacet
  facet normal -1 0 0
    outer loop
      vertex 94.16 5.65075 7
      vertex 94.16 57.32 9
      vertex 94.16 53.6692 7
    endloop
  endfacet
  facet normal -1 0 0
    outer loop
      vertex 94.16 2 9
      vertex 94.16 5.65075 7
      vertex 94.16 2 7
    endloop
  endfacet
  facet normal -1 0 0
    outer loop
      vertex 94.16 5.65075 7
      vertex 94.16 2 9
      vertex 94.16 57.32 9
    endloop
  endfacet
  facet normal 0 -1 0
    outer loop
      vertex 5.65075 57.32 7
      vertex 2 57.32 9
      vertex 2 57.32 7
    endloop
  endfacet
  facet normal 0 -1 0
    outer loop
      vertex 2 57.32 9
      vertex 5.65075 57.32 7
      vertex 94.16 57.32 9
    endloop
  endfacet
  facet normal 0 -1 0
    outer loop
      vertex 90.5092 57.32 7
      vertex 94.16 57.32 9
      vertex 5.65075 57.32 7
    endloop
  endfacet
  facet normal 0 -1 -0
    outer loop
      vertex 94.16 57.32 9
      vertex 90.5092 57.32 7
      vertex 94.16 57.32 7
    endloop
  endfacet
  facet normal 0 1 0
    outer loop
      vertex 90.5092 2 7
      vertex 94.16 2 9
      vertex 94.16 2 7
    endloop
  endfacet
  facet normal 0 1 0
    outer loop
      vertex 94.16 2 9
      vertex 90.5092 2 7
      vertex 2 2 9
    endloop
  endfacet
  facet normal 0 1 -0
    outer loop
      vertex 5.65075 2 7
      vertex 2 2 9
      vertex 90.5092 2 7
    endloop
  endfacet
  facet normal 0 1 0
    outer loop
      vertex 2 2 9
      vertex 5.65075 2 7
      vertex 2 2 7
    endloop
  endfacet
  facet normal 1 0 0
    outer loop
      vertex 2.75 53.6446 3.01
      vertex 2.75 5.67538 3.01
      vertex 2.75 53.6446 2
    endloop
  endfacet
  facet normal 1 -0 0
    outer loop
      vertex 2.75 53.6446 2
      vertex 2.75 56.57 0
      vertex 2.75 56.57 2
    endloop
  endfacet
  facet normal 1 0 0
    outer loop
      vertex 2.75 5.67538 2
      vertex 2.75 53.6446 2
      vertex 2.75 5.67538 3.01
    endloop
  endfacet
  facet normal 1 0 0
    outer loop
      vertex 2.75 53.6446 2
      vertex 2.75 5.67538 2
      vertex 2.75 56.57 0
    endloop
  endfacet
  facet normal 1 0 0
    outer loop
      vertex 2.75 2.75 0
      vertex 2.75 5.67538 2
      vertex 2.75 2.75 2
    endloop
  endfacet
  facet normal 1 0 0
    outer loop
      vertex 2.75 5.67538 2
      vertex 2.75 2.75 0
      vertex 2.75 56.57 0
    endloop
  endfacet
  facet normal 0 0 -1
    outer loop
      vertex 93.0357 5.63851 3.01
      vertex 93.41 53.6446 3.01
      vertex 93.41 5.67538 3.01
    endloop
  endfacet
  facet normal 0 0 -1
    outer loop
      vertex 93.0357 5.63851 3.01
      vertex 93.0357 53.6815 3.01
      vertex 93.41 53.6446 3.01
    endloop
  endfacet
  facet normal 0 0 -1
    outer loop
      vertex 92.4354 5.45641 3.01
      vertex 93.0357 53.6815 3.01
      vertex 93.0357 5.63851 3.01
    endloop
  endfacet
  facet normal 0 0 -1
    outer loop
      vertex 92.4354 5.45641 3.01
      vertex 92.4354 53.8636 3.01
      vertex 93.0357 53.6815 3.01
    endloop
  endfacet
  facet normal 0 0 -1
    outer loop
      vertex 91.8822 5.1607 3.01
      vertex 92.4354 53.8636 3.01
      vertex 92.4354 5.45641 3.01
    endloop
  endfacet
  facet normal 0 0 -1
    outer loop
      vertex 91.8822 5.1607 3.01
      vertex 91.8822 54.1593 3.01
      vertex 92.4354 53.8636 3.01
    endloop
  endfacet
  facet normal 0 0 -1
    outer loop
      vertex 46.1885 30.7157 3.01
      vertex 91.8822 5.1607 3.01
      vertex 91.3973 4.76274 3.01
    endloop
  endfacet
  facet normal 0 0 -1
    outer loop
      vertex 91.8822 5.1607 3.01
      vertex 46.25 31.34 3.01
      vertex 91.8822 54.1593 3.01
    endloop
  endfacet
  facet normal 0 0 -1
    outer loop
      vertex 46.0064 30.1154 3.01
      vertex 91.3973 4.76274 3.01
      vertex 90.9993 4.27782 3.01
    endloop
  endfacet
  facet normal -0 0 -1
    outer loop
      vertex 91.8822 54.1593 3.01
      vertex 46.25 31.34 3.01
      vertex 91.3973 54.5573 3.01
    endloop
  endfacet
  facet normal 0 0 -1
    outer loop
      vertex 45.7107 29.5622 3.01
      vertex 90.9993 4.27782 3.01
      vertex 90.7036 3.72459 3.01
    endloop
  endfacet
  facet normal 0 0 -1
    outer loop
      vertex 46.1885 31.9643 3.01
      vertex 91.3973 54.5573 3.01
      vertex 46.25 31.34 3.01
    endloop
  endfacet
  facet normal 0 0 -1
    outer loop
      vertex 45.3127 29.0773 3.01
      vertex 90.7036 3.72459 3.01
      vertex 90.5215 3.12429 3.01
    endloop
  endfacet
  facet normal -0 0 -1
    outer loop
      vertex 91.3973 54.5573 3.01
      vertex 46.1885 31.9643 3.01
      vertex 90.9993 55.0422 3.01
    endloop
  endfacet
  facet normal 0 0 -1
    outer loop
      vertex 44.8278 28.6793 3.01
      vertex 90.5215 3.12429 3.01
      vertex 90.4846 2.75 3.01
    endloop
  endfacet
  facet normal 0 0 -1
    outer loop
      vertex 46.0064 32.5646 3.01
      vertex 90.9993 55.0422 3.01
      vertex 46.1885 31.9643 3.01
    endloop
  endfacet
  facet normal -0 0 -1
    outer loop
      vertex 90.9993 55.0422 3.01
      vertex 46.0064 32.5646 3.01
      vertex 90.7036 55.5954 3.01
    endloop
  endfacet
  facet normal 0 0 -1
    outer loop
      vertex 91.8822 5.1607 3.01
      vertex 46.1885 30.7157 3.01
      vertex 46.25 31.34 3.01
    endloop
  endfacet
  facet normal 0 0 -1
    outer loop
      vertex 91.3973 4.76274 3.01
      vertex 46.0064 30.1154 3.01
      vertex 46.1885 30.7157 3.01
    endloop
  endfacet
  facet normal 0 0 -1
    outer loop
      vertex 90.9993 4.27782 3.01
      vertex 45.7107 29.5622 3.01
      vertex 46.0064 30.1154 3.01
    endloop
  endfacet
  facet normal 0 0 -1
    outer loop
      vertex 90.7036 3.72459 3.01
      vertex 45.3127 29.0773 3.01
      vertex 45.7107 29.5622 3.01
    endloop
  endfacet
  facet normal 0 0 -1
    outer loop
      vertex 90.5215 3.12429 3.01
      vertex 44.8278 28.6793 3.01
      vertex 45.3127 29.0773 3.01
    endloop
  endfacet
  facet normal 0 0 -1
    outer loop
      vertex 90.4846 2.75 3.01
      vertex 44.2746 28.3836 3.01
      vertex 44.8278 28.6793 3.01
    endloop
  endfacet
  facet normal 0 0 -1
    outer loop
      vertex 90.4846 2.75 3.01
      vertex 43.6743 28.2015 3.01
      vertex 44.2746 28.3836 3.01
    endloop
  endfacet
  facet normal 0 0 -1
    outer loop
      vertex 90.4846 2.75 3.01
      vertex 43.05 28.14 3.01
      vertex 43.6743 28.2015 3.01
    endloop
  endfacet
  facet normal 0 0 -1
    outer loop
      vertex 5.67538 2.75 3.01
      vertex 43.05 28.14 3.01
      vertex 90.4846 2.75 3.01
    endloop
  endfacet
  facet normal -0 0 -1
    outer loop
      vertex 43.05 28.14 3.01
      vertex 5.67538 2.75 3.01
      vertex 42.4257 28.2015 3.01
    endloop
  endfacet
  facet normal -0 0 -1
    outer loop
      vertex 40.7873 29.0773 3.01
      vertex 5.1607 4.27782 3.01
      vertex 40.3893 29.5622 3.01
    endloop
  endfacet
  facet normal 0 0 -1
    outer loop
      vertex 5.1607 4.27782 3.01
      vertex 40.7873 29.0773 3.01
      vertex 5.45641 3.72459 3.01
    endloop
  endfacet
  facet normal -0 0 -1
    outer loop
      vertex 41.2722 28.6793 3.01
      vertex 5.45641 3.72459 3.01
      vertex 40.7873 29.0773 3.01
    endloop
  endfacet
  facet normal 0 0 -1
    outer loop
      vertex 5.45641 3.72459 3.01
      vertex 41.2722 28.6793 3.01
      vertex 5.63851 3.12429 3.01
    endloop
  endfacet
  facet normal -0 0 -1
    outer loop
      vertex 41.8254 28.3836 3.01
      vertex 5.63851 3.12429 3.01
      vertex 41.2722 28.6793 3.01
    endloop
  endfacet
  facet normal 0 0 -1
    outer loop
      vertex 5.63851 3.12429 3.01
      vertex 41.8254 28.3836 3.01
      vertex 5.67538 2.75 3.01
    endloop
  endfacet
  facet normal -0 0 -1
    outer loop
      vertex 42.4257 28.2015 3.01
      vertex 5.67538 2.75 3.01
      vertex 41.8254 28.3836 3.01
    endloop
  endfacet
  facet normal 0 0 -1
    outer loop
      vertex 45.7107 33.1178 3.01
      vertex 90.7036 55.5954 3.01
      vertex 46.0064 32.5646 3.01
    endloop
  endfacet
  facet normal -0 0 -1
    outer loop
      vertex 90.7036 55.5954 3.01
      vertex 45.7107 33.1178 3.01
      vertex 90.5215 56.1957 3.01
    endloop
  endfacet
  facet normal 0 0 -1
    outer loop
      vertex 45.3127 33.6027 3.01
      vertex 90.5215 56.1957 3.01
      vertex 45.7107 33.1178 3.01
    endloop
  endfacet
  facet normal -0 0 -1
    outer loop
      vertex 90.5215 56.1957 3.01
      vertex 45.3127 33.6027 3.01
      vertex 90.4846 56.57 3.01
    endloop
  endfacet
  facet normal 0 0 -1
    outer loop
      vertex 44.8278 34.0007 3.01
      vertex 90.4846 56.57 3.01
      vertex 45.3127 33.6027 3.01
    endloop
  endfacet
  facet normal 0 0 -1
    outer loop
      vertex 44.2746 34.2964 3.01
      vertex 90.4846 56.57 3.01
      vertex 44.8278 34.0007 3.01
    endloop
  endfacet
  facet normal 0 0 -1
    outer loop
      vertex 43.6743 34.4785 3.01
      vertex 90.4846 56.57 3.01
      vertex 44.2746 34.2964 3.01
    endloop
  endfacet
  facet normal 0 0 -1
    outer loop
      vertex 43.05 34.54 3.01
      vertex 90.4846 56.57 3.01
      vertex 43.6743 34.4785 3.01
    endloop
  endfacet
  facet normal 0 0 -1
    outer loop
      vertex 5.67538 56.57 3.01
      vertex 43.05 34.54 3.01
      vertex 42.4257 34.4785 3.01
    endloop
  endfacet
  facet normal 0 0 -1
    outer loop
      vertex 5.67538 56.57 3.01
      vertex 42.4257 34.4785 3.01
      vertex 41.8254 34.2964 3.01
    endloop
  endfacet
  facet normal 0 0 -1
    outer loop
      vertex 4.76274 4.76274 3.01
      vertex 40.3893 29.5622 3.01
      vertex 5.1607 4.27782 3.01
    endloop
  endfacet
  facet normal -0 0 -1
    outer loop
      vertex 40.3893 29.5622 3.01
      vertex 4.76274 4.76274 3.01
      vertex 40.0936 30.1154 3.01
    endloop
  endfacet
  facet normal 0 0 -1
    outer loop
      vertex 4.27782 5.1607 3.01
      vertex 40.0936 30.1154 3.01
      vertex 4.76274 4.76274 3.01
    endloop
  endfacet
  facet normal -0 0 -1
    outer loop
      vertex 40.0936 30.1154 3.01
      vertex 4.27782 5.1607 3.01
      vertex 39.9115 30.7157 3.01
    endloop
  endfacet
  facet normal 0 0 -1
    outer loop
      vertex 43.05 34.54 3.01
      vertex 5.67538 56.57 3.01
      vertex 90.4846 56.57 3.01
    endloop
  endfacet
  facet normal 0 0 -1
    outer loop
      vertex 41.2722 34.0007 3.01
      vertex 5.67538 56.57 3.01
      vertex 41.8254 34.2964 3.01
    endloop
  endfacet
  facet normal 0 0 -1
    outer loop
      vertex 5.63851 56.1957 3.01
      vertex 41.2722 34.0007 3.01
      vertex 40.7873 33.6027 3.01
    endloop
  endfacet
  facet normal 0 0 -1
    outer loop
      vertex 3.72459 5.45641 3.01
      vertex 39.9115 30.7157 3.01
      vertex 4.27782 5.1607 3.01
    endloop
  endfacet
  facet normal -0 0 -1
    outer loop
      vertex 39.9115 30.7157 3.01
      vertex 3.72459 5.45641 3.01
      vertex 39.85 31.34 3.01
    endloop
  endfacet
  facet normal 0 0 -1
    outer loop
      vertex 41.2722 34.0007 3.01
      vertex 5.63851 56.1957 3.01
      vertex 5.67538 56.57 3.01
    endloop
  endfacet
  facet normal 0 0 -1
    outer loop
      vertex 3.72459 53.8636 3.01
      vertex 39.85 31.34 3.01
      vertex 3.72459 5.45641 3.01
    endloop
  endfacet
  facet normal 0 0 -1
    outer loop
      vertex 40.7873 33.6027 3.01
      vertex 5.45641 55.5954 3.01
      vertex 5.63851 56.1957 3.01
    endloop
  endfacet
  facet normal 0 -0 -1
    outer loop
      vertex 4.27782 54.1593 3.01
      vertex 39.85 31.34 3.01
      vertex 3.72459 53.8636 3.01
    endloop
  endfacet
  facet normal 0 0 -1
    outer loop
      vertex 40.3893 33.1178 3.01
      vertex 5.45641 55.5954 3.01
      vertex 40.7873 33.6027 3.01
    endloop
  endfacet
  facet normal 0 0 -1
    outer loop
      vertex 39.85 31.34 3.01
      vertex 4.27782 54.1593 3.01
      vertex 39.9115 31.9643 3.01
    endloop
  endfacet
  facet normal 0 -0 -1
    outer loop
      vertex 5.45641 55.5954 3.01
      vertex 40.3893 33.1178 3.01
      vertex 5.1607 55.0422 3.01
    endloop
  endfacet
  facet normal 0 -0 -1
    outer loop
      vertex 4.76274 54.5573 3.01
      vertex 39.9115 31.9643 3.01
      vertex 4.27782 54.1593 3.01
    endloop
  endfacet
  facet normal 0 0 -1
    outer loop
      vertex 40.0936 32.5646 3.01
      vertex 5.1607 55.0422 3.01
      vertex 40.3893 33.1178 3.01
    endloop
  endfacet
  facet normal 0 0 -1
    outer loop
      vertex 39.9115 31.9643 3.01
      vertex 4.76274 54.5573 3.01
      vertex 40.0936 32.5646 3.01
    endloop
  endfacet
  facet normal 0 -0 -1
    outer loop
      vertex 5.1607 55.0422 3.01
      vertex 40.0936 32.5646 3.01
      vertex 4.76274 54.5573 3.01
    endloop
  endfacet
  facet normal 0 0 -1
    outer loop
      vertex 3.12429 5.63851 3.01
      vertex 3.72459 53.8636 3.01
      vertex 3.72459 5.45641 3.01
    endloop
  endfacet
  facet normal 0 0 -1
    outer loop
      vertex 3.12429 5.63851 3.01
      vertex 3.12429 53.6815 3.01
      vertex 3.72459 53.8636 3.01
    endloop
  endfacet
  facet normal 0 0 -1
    outer loop
      vertex 2.75 5.67538 3.01
      vertex 3.12429 53.6815 3.01
      vertex 3.12429 5.63851 3.01
    endloop
  endfacet
  facet normal 0 0 -1
    outer loop
      vertex 3.12429 53.6815 3.01
      vertex 2.75 5.67538 3.01
      vertex 2.75 53.6446 3.01
    endloop
  endfacet
  facet normal -1 0 0
    outer loop
      vertex 93.41 56.57 0
      vertex 93.41 53.6446 2
      vertex 93.41 56.57 2
    endloop
  endfacet
  facet normal -1 0 0
    outer loop
      vertex 93.41 53.6446 2
      vertex 93.41 5.67538 2
      vertex 93.41 53.6446 3.01
    endloop
  endfacet
  facet normal -1 0 0
    outer loop
      vertex 93.41 56.57 0
      vertex 93.41 5.67538 2
      vertex 93.41 53.6446 2
    endloop
  endfacet
  facet normal -1 0 0
    outer loop
      vertex 93.41 2.75 0
      vertex 93.41 5.67538 2
      vertex 93.41 56.57 0
    endloop
  endfacet
  facet normal -1 -0 0
    outer loop
      vertex 93.41 5.67538 2
      vertex 93.41 2.75 0
      vertex 93.41 2.75 2
    endloop
  endfacet
  facet normal -1 -0 0
    outer loop
      vertex 93.41 53.6446 3.01
      vertex 93.41 5.67538 2
      vertex 93.41 5.67538 3.01
    endloop
  endfacet
  facet normal 0 -1 0
    outer loop
      vertex 2.75 56.57 0
      vertex 5.67538 56.57 2
      vertex 2.75 56.57 2
    endloop
  endfacet
  facet normal 0 -1 -0
    outer loop
      vertex 5.67538 56.57 2
      vertex 2.75 56.57 0
      vertex 90.4846 56.57 2
    endloop
  endfacet
  facet normal 0 -1 0
    outer loop
      vertex 93.41 56.57 0
      vertex 90.4846 56.57 2
      vertex 2.75 56.57 0
    endloop
  endfacet
  facet normal 0 -1 0
    outer loop
      vertex 90.4846 56.57 2
      vertex 93.41 56.57 0
      vertex 93.41 56.57 2
    endloop
  endfacet
  facet normal 0 -1 0
    outer loop
      vertex 5.67538 56.57 2
      vertex 90.4846 56.57 3.01
      vertex 5.67538 56.57 3.01
    endloop
  endfacet
  facet normal 0 -1 -0
    outer loop
      vertex 90.4846 56.57 3.01
      vertex 5.67538 56.57 2
      vertex 90.4846 56.57 2
    endloop
  endfacet
  facet normal 0 1 -0
    outer loop
      vertex 93.41 2.75 0
      vertex 90.4846 2.75 2
      vertex 93.41 2.75 2
    endloop
  endfacet
  facet normal 0 1 0
    outer loop
      vertex 90.4846 2.75 2
      vertex 93.41 2.75 0
      vertex 5.67538 2.75 2
    endloop
  endfacet
  facet normal 0 1 0
    outer loop
      vertex 2.75 2.75 0
      vertex 5.67538 2.75 2
      vertex 93.41 2.75 0
    endloop
  endfacet
  facet normal 0 1 0
    outer loop
      vertex 5.67538 2.75 2
      vertex 2.75 2.75 0
      vertex 2.75 2.75 2
    endloop
  endfacet
  facet normal 0 1 -0
    outer loop
      vertex 90.4846 2.75 2
      vertex 5.67538 2.75 3.01
      vertex 90.4846 2.75 3.01
    endloop
  endfacet
  facet normal 0 1 0
    outer loop
      vertex 5.67538 2.75 3.01
      vertex 90.4846 2.75 2
      vertex 5.67538 2.75 2
    endloop
  endfacet
  facet normal -0.634444 -0.772969 0
    outer loop
      vertex 44.8278 34.0007 3.01
      vertex 45.3127 33.6027 7
      vertex 44.8278 34.0007 7
    endloop
  endfacet
  facet normal -0.634444 -0.772969 -0
    outer loop
      vertex 45.3127 33.6027 7
      vertex 44.8278 34.0007 3.01
      vertex 45.3127 33.6027 3.01
    endloop
  endfacet
  facet normal 0.95694 -0.290286 0
    outer loop
      vertex 39.9115 31.9643 7
      vertex 40.0936 32.5646 3.01
      vertex 40.0936 32.5646 7
    endloop
  endfacet
  facet normal 0.95694 -0.290286 0
    outer loop
      vertex 40.0936 32.5646 3.01
      vertex 39.9115 31.9643 7
      vertex 39.9115 31.9643 3.01
    endloop
  endfacet
  facet normal 0.290286 0.95694 -0
    outer loop
      vertex 42.4257 28.2015 3.01
      vertex 41.8254 28.3836 7
      vertex 42.4257 28.2015 7
    endloop
  endfacet
  facet normal 0.290286 0.95694 0
    outer loop
      vertex 41.8254 28.3836 7
      vertex 42.4257 28.2015 3.01
      vertex 41.8254 28.3836 3.01
    endloop
  endfacet
  facet normal -0.95694 -0.290286 0
    outer loop
      vertex 46.1885 31.9643 3.01
      vertex 46.0064 32.5646 7
      vertex 46.0064 32.5646 3.01
    endloop
  endfacet
  facet normal -0.95694 -0.290286 0
    outer loop
      vertex 46.0064 32.5646 7
      vertex 46.1885 31.9643 3.01
      vertex 46.1885 31.9643 7
    endloop
  endfacet
  facet normal 0.290286 -0.95694 0
    outer loop
      vertex 41.8254 34.2964 3.01
      vertex 42.4257 34.4785 7
      vertex 41.8254 34.2964 7
    endloop
  endfacet
  facet normal 0.290286 -0.95694 0
    outer loop
      vertex 42.4257 34.4785 7
      vertex 41.8254 34.2964 3.01
      vertex 42.4257 34.4785 3.01
    endloop
  endfacet
  facet normal 0.881916 -0.471407 0
    outer loop
      vertex 40.0936 32.5646 7
      vertex 40.3893 33.1178 3.01
      vertex 40.3893 33.1178 7
    endloop
  endfacet
  facet normal 0.881916 -0.471407 0
    outer loop
      vertex 40.3893 33.1178 3.01
      vertex 40.0936 32.5646 7
      vertex 40.0936 32.5646 3.01
    endloop
  endfacet
  facet normal -0.881916 -0.471407 0
    outer loop
      vertex 46.0064 32.5646 3.01
      vertex 45.7107 33.1178 7
      vertex 45.7107 33.1178 3.01
    endloop
  endfacet
  facet normal -0.881916 -0.471407 0
    outer loop
      vertex 45.7107 33.1178 7
      vertex 46.0064 32.5646 3.01
      vertex 46.0064 32.5646 7
    endloop
  endfacet
  facet normal -0.772969 -0.634444 0
    outer loop
      vertex 45.7107 33.1178 3.01
      vertex 45.3127 33.6027 7
      vertex 45.3127 33.6027 3.01
    endloop
  endfacet
  facet normal -0.772969 -0.634444 0
    outer loop
      vertex 45.3127 33.6027 7
      vertex 45.7107 33.1178 3.01
      vertex 45.7107 33.1178 7
    endloop
  endfacet
  facet normal -0.471407 -0.881916 0
    outer loop
      vertex 44.2746 34.2964 3.01
      vertex 44.8278 34.0007 7
      vertex 44.2746 34.2964 7
    endloop
  endfacet
  facet normal -0.471407 -0.881916 -0
    outer loop
      vertex 44.8278 34.0007 7
      vertex 44.2746 34.2964 3.01
      vertex 44.8278 34.0007 3.01
    endloop
  endfacet
  facet normal -0.0980358 -0.995183 0
    outer loop
      vertex 43.05 34.54 3.01
      vertex 43.6743 34.4785 7
      vertex 43.05 34.54 7
    endloop
  endfacet
  facet normal -0.0980358 -0.995183 -0
    outer loop
      vertex 43.6743 34.4785 7
      vertex 43.05 34.54 3.01
      vertex 43.6743 34.4785 3.01
    endloop
  endfacet
  facet normal -0.290286 -0.95694 0
    outer loop
      vertex 43.6743 34.4785 3.01
      vertex 44.2746 34.2964 7
      vertex 43.6743 34.4785 7
    endloop
  endfacet
  facet normal -0.290286 -0.95694 -0
    outer loop
      vertex 44.2746 34.2964 7
      vertex 43.6743 34.4785 3.01
      vertex 44.2746 34.2964 3.01
    endloop
  endfacet
  facet normal 0.995183 -0.0980358 0
    outer loop
      vertex 39.85 31.34 7
      vertex 39.9115 31.9643 3.01
      vertex 39.9115 31.9643 7
    endloop
  endfacet
  facet normal 0.995183 -0.0980358 0
    outer loop
      vertex 39.9115 31.9643 3.01
      vertex 39.85 31.34 7
      vertex 39.85 31.34 3.01
    endloop
  endfacet
  facet normal 0.772969 -0.634444 0
    outer loop
      vertex 40.3893 33.1178 7
      vertex 40.7873 33.6027 3.01
      vertex 40.7873 33.6027 7
    endloop
  endfacet
  facet normal 0.772969 -0.634444 0
    outer loop
      vertex 40.7873 33.6027 3.01
      vertex 40.3893 33.1178 7
      vertex 40.3893 33.1178 3.01
    endloop
  endfacet
  facet normal 0.471407 -0.881916 0
    outer loop
      vertex 41.2722 34.0007 3.01
      vertex 41.8254 34.2964 7
      vertex 41.2722 34.0007 7
    endloop
  endfacet
  facet normal 0.471407 -0.881916 0
    outer loop
      vertex 41.8254 34.2964 7
      vertex 41.2722 34.0007 3.01
      vertex 41.8254 34.2964 3.01
    endloop
  endfacet
  facet normal 0.0980358 -0.995183 0
    outer loop
      vertex 42.4257 34.4785 3.01
      vertex 43.05 34.54 7
      vertex 42.4257 34.4785 7
    endloop
  endfacet
  facet normal 0.0980358 -0.995183 0
    outer loop
      vertex 43.05 34.54 7
      vertex 42.4257 34.4785 3.01
      vertex 43.05 34.54 3.01
    endloop
  endfacet
  facet normal 0.634444 -0.772969 0
    outer loop
      vertex 40.7873 33.6027 3.01
      vertex 41.2722 34.0007 7
      vertex 40.7873 33.6027 7
    endloop
  endfacet
  facet normal 0.634444 -0.772969 0
    outer loop
      vertex 41.2722 34.0007 7
      vertex 40.7873 33.6027 3.01
      vertex 41.2722 34.0007 3.01
    endloop
  endfacet
  facet normal -0.995183 -0.0980358 0
    outer loop
      vertex 46.25 31.34 3.01
      vertex 46.1885 31.9643 7
      vertex 46.1885 31.9643 3.01
    endloop
  endfacet
  facet normal -0.995183 -0.0980358 0
    outer loop
      vertex 46.1885 31.9643 7
      vertex 46.25 31.34 3.01
      vertex 46.25 31.34 7
    endloop
  endfacet
  facet normal -0.0980358 0.995183 0
    outer loop
      vertex 43.6743 28.2015 3.01
      vertex 43.05 28.14 7
      vertex 43.6743 28.2015 7
    endloop
  endfacet
  facet normal -0.0980358 0.995183 0
    outer loop
      vertex 43.05 28.14 7
      vertex 43.6743 28.2015 3.01
      vertex 43.05 28.14 3.01
    endloop
  endfacet
  facet normal -0.290286 0.95694 0
    outer loop
      vertex 44.2746 28.3836 3.01
      vertex 43.6743 28.2015 7
      vertex 44.2746 28.3836 7
    endloop
  endfacet
  facet normal -0.290286 0.95694 0
    outer loop
      vertex 43.6743 28.2015 7
      vertex 44.2746 28.3836 3.01
      vertex 43.6743 28.2015 3.01
    endloop
  endfacet
  facet normal -0.471407 0.881916 0
    outer loop
      vertex 44.8278 28.6793 3.01
      vertex 44.2746 28.3836 7
      vertex 44.8278 28.6793 7
    endloop
  endfacet
  facet normal -0.471407 0.881916 0
    outer loop
      vertex 44.2746 28.3836 7
      vertex 44.8278 28.6793 3.01
      vertex 44.2746 28.3836 3.01
    endloop
  endfacet
  facet normal -0.772969 0.634444 0
    outer loop
      vertex 45.3127 29.0773 3.01
      vertex 45.7107 29.5622 7
      vertex 45.7107 29.5622 3.01
    endloop
  endfacet
  facet normal -0.772969 0.634444 0
    outer loop
      vertex 45.7107 29.5622 7
      vertex 45.3127 29.0773 3.01
      vertex 45.3127 29.0773 7
    endloop
  endfacet
  facet normal 0.0980358 0.995183 -0
    outer loop
      vertex 43.05 28.14 3.01
      vertex 42.4257 28.2015 7
      vertex 43.05 28.14 7
    endloop
  endfacet
  facet normal 0.0980358 0.995183 0
    outer loop
      vertex 42.4257 28.2015 7
      vertex 43.05 28.14 3.01
      vertex 42.4257 28.2015 3.01
    endloop
  endfacet
  facet normal 0.634444 0.772969 -0
    outer loop
      vertex 41.2722 28.6793 3.01
      vertex 40.7873 29.0773 7
      vertex 41.2722 28.6793 7
    endloop
  endfacet
  facet normal 0.634444 0.772969 0
    outer loop
      vertex 40.7873 29.0773 7
      vertex 41.2722 28.6793 3.01
      vertex 40.7873 29.0773 3.01
    endloop
  endfacet
  facet normal 0.881916 0.471407 0
    outer loop
      vertex 40.3893 29.5622 7
      vertex 40.0936 30.1154 3.01
      vertex 40.0936 30.1154 7
    endloop
  endfacet
  facet normal 0.881916 0.471407 0
    outer loop
      vertex 40.0936 30.1154 3.01
      vertex 40.3893 29.5622 7
      vertex 40.3893 29.5622 3.01
    endloop
  endfacet
  facet normal 0.995183 0.0980358 0
    outer loop
      vertex 39.9115 30.7157 7
      vertex 39.85 31.34 3.01
      vertex 39.85 31.34 7
    endloop
  endfacet
  facet normal 0.995183 0.0980358 0
    outer loop
      vertex 39.85 31.34 3.01
      vertex 39.9115 30.7157 7
      vertex 39.9115 30.7157 3.01
    endloop
  endfacet
  facet normal 0.772969 0.634444 0
    outer loop
      vertex 40.7873 29.0773 7
      vertex 40.3893 29.5622 3.01
      vertex 40.3893 29.5622 7
    endloop
  endfacet
  facet normal 0.772969 0.634444 0
    outer loop
      vertex 40.3893 29.5622 3.01
      vertex 40.7873 29.0773 7
      vertex 40.7873 29.0773 3.01
    endloop
  endfacet
  facet normal -0.95694 0.290286 0
    outer loop
      vertex 46.0064 30.1154 3.01
      vertex 46.1885 30.7157 7
      vertex 46.1885 30.7157 3.01
    endloop
  endfacet
  facet normal -0.95694 0.290286 0
    outer loop
      vertex 46.1885 30.7157 7
      vertex 46.0064 30.1154 3.01
      vertex 46.0064 30.1154 7
    endloop
  endfacet
  facet normal -0.634444 0.772969 0
    outer loop
      vertex 45.3127 29.0773 3.01
      vertex 44.8278 28.6793 7
      vertex 45.3127 29.0773 7
    endloop
  endfacet
  facet normal -0.634444 0.772969 0
    outer loop
      vertex 44.8278 28.6793 7
      vertex 45.3127 29.0773 3.01
      vertex 44.8278 28.6793 3.01
    endloop
  endfacet
  facet normal -0.881916 0.471407 0
    outer loop
      vertex 45.7107 29.5622 3.01
      vertex 46.0064 30.1154 7
      vertex 46.0064 30.1154 3.01
    endloop
  endfacet
  facet normal -0.881916 0.471407 0
    outer loop
      vertex 46.0064 30.1154 7
      vertex 45.7107 29.5622 3.01
      vertex 45.7107 29.5622 7
    endloop
  endfacet
  facet normal 0.471407 0.881916 -0
    outer loop
      vertex 41.8254 28.3836 3.01
      vertex 41.2722 28.6793 7
      vertex 41.8254 28.3836 7
    endloop
  endfacet
  facet normal 0.471407 0.881916 0
    outer loop
      vertex 41.2722 28.6793 7
      vertex 41.8254 28.3836 3.01
      vertex 41.2722 28.6793 3.01
    endloop
  endfacet
  facet normal 0.95694 0.290286 0
    outer loop
      vertex 40.0936 30.1154 7
      vertex 39.9115 30.7157 3.01
      vertex 39.9115 30.7157 7
    endloop
  endfacet
  facet normal 0.95694 0.290286 0
    outer loop
      vertex 39.9115 30.7157 3.01
      vertex 40.0936 30.1154 7
      vertex 40.0936 30.1154 3.01
    endloop
  endfacet
  facet normal -0.995183 0.0980358 0
    outer loop
      vertex 46.1885 30.7157 3.01
      vertex 46.25 31.34 7
      vertex 46.25 31.34 3.01
    endloop
  endfacet
  facet normal -0.995183 0.0980358 0
    outer loop
      vertex 46.25 31.34 7
      vertex 46.1885 30.7157 3.01
      vertex 46.1885 30.7157 7
    endloop
  endfacet
endsolid OpenSCAD_Model
